M48
; DRILL file {KiCad 8.0.8} date 2025-06-30T13:55:59-0600
; FORMAT={-:-/ absolute / inch / decimal}
; #@! TF.CreationDate,2025-06-30T13:55:59-06:00
; #@! TF.GenerationSoftware,Kicad,Pcbnew,8.0.8
; #@! TF.FileFunction,Plated,1,2,PTH
FMAT,2
INCH
; #@! TA.AperFunction,Plated,PTH,ViaDrill
T1C0.0118
; #@! TA.AperFunction,Plated,PTH,ComponentDrill
T2C0.0295
; #@! TA.AperFunction,Plated,PTH,ComponentDrill
T3C0.0315
; #@! TA.AperFunction,Plated,PTH,ComponentDrill
T4C0.0354
; #@! TA.AperFunction,Plated,PTH,ComponentDrill
T5C0.0433
%
G90
G05
T1
X4.875Y-2.9062
X5.4375Y-2.6206
X5.5312Y-3.5625
X5.625Y-3.0
X6.1875Y-2.8125
T2
X4.6875Y-3.8438
X4.7375Y-3.7937
X4.7875Y-3.8438
X5.4813Y-2.5812
X5.5312Y-2.5312
X5.5812Y-2.5812
X6.0875Y-3.1875
X6.1375Y-3.1375
X6.1875Y-3.1875
T3
X4.35Y-3.1875
X4.65Y-3.1875
X4.9688Y-3.9375
X5.1562Y-2.4375
X5.1937Y-2.1562
X5.2687Y-3.9375
X5.2901Y-2.4375
X5.4937Y-2.1562
X5.7Y-3.8438
X5.9062Y-2.9062
X6.0Y-3.8438
X6.2062Y-2.9062
T4
X4.3125Y-2.9062
X4.4125Y-2.9062
X5.9937Y-4.125
X6.0938Y-4.125
T5
X4.5595Y-4.1302
X4.5595Y-4.3073
X4.8155Y-4.1302
X4.8155Y-4.3073
X6.3408Y-2.8177
X6.3408Y-2.9948
X6.5967Y-2.8177
X6.5967Y-2.9948
M30
