%TF.GenerationSoftware,KiCad,Pcbnew,8.0.8*%
%TF.CreationDate,2025-06-30T13:56:02-06:00*%
%TF.ProjectId,SolderNunu,536f6c64-6572-44e7-956e-752e6b696361,rev?*%
%TF.SameCoordinates,Original*%
%TF.FileFunction,Copper,L2,Bot*%
%TF.FilePolarity,Positive*%
%FSLAX46Y46*%
G04 Gerber Fmt 4.6, Leading zero omitted, Abs format (unit mm)*
G04 Created by KiCad (PCBNEW 8.0.8) date 2025-06-30 13:56:02*
%MOMM*%
%LPD*%
G01*
G04 APERTURE LIST*
G04 Aperture macros list*
%AMRoundRect*
0 Rectangle with rounded corners*
0 $1 Rounding radius*
0 $2 $3 $4 $5 $6 $7 $8 $9 X,Y pos of 4 corners*
0 Add a 4 corners polygon primitive as box body*
4,1,4,$2,$3,$4,$5,$6,$7,$8,$9,$2,$3,0*
0 Add four circle primitives for the rounded corners*
1,1,$1+$1,$2,$3*
1,1,$1+$1,$4,$5*
1,1,$1+$1,$6,$7*
1,1,$1+$1,$8,$9*
0 Add four rect primitives between the rounded corners*
20,1,$1+$1,$2,$3,$4,$5,0*
20,1,$1+$1,$4,$5,$6,$7,0*
20,1,$1+$1,$6,$7,$8,$9,0*
20,1,$1+$1,$8,$9,$2,$3,0*%
G04 Aperture macros list end*
%TA.AperFunction,ComponentPad*%
%ADD10C,1.600000*%
%TD*%
%TA.AperFunction,ComponentPad*%
%ADD11O,1.600000X1.600000*%
%TD*%
%TA.AperFunction,ComponentPad*%
%ADD12R,1.100000X1.800000*%
%TD*%
%TA.AperFunction,ComponentPad*%
%ADD13RoundRect,0.275000X-0.275000X-0.625000X0.275000X-0.625000X0.275000X0.625000X-0.275000X0.625000X0*%
%TD*%
%TA.AperFunction,ComponentPad*%
%ADD14R,1.800000X1.800000*%
%TD*%
%TA.AperFunction,ComponentPad*%
%ADD15C,1.800000*%
%TD*%
%TA.AperFunction,ComponentPad*%
%ADD16C,2.000000*%
%TD*%
%TA.AperFunction,ComponentPad*%
%ADD17C,1.500000*%
%TD*%
%TA.AperFunction,SMDPad,CuDef*%
%ADD18R,1.270000X5.080000*%
%TD*%
%TA.AperFunction,SMDPad,CuDef*%
%ADD19C,17.800000*%
%TD*%
%TA.AperFunction,ViaPad*%
%ADD20C,0.600000*%
%TD*%
%TA.AperFunction,Conductor*%
%ADD21C,0.200000*%
%TD*%
G04 APERTURE END LIST*
D10*
%TO.P,R5,1*%
%TO.N,Net-(Q2-C)*%
X150018750Y-73818750D03*
D11*
%TO.P,R5,2*%
%TO.N,Net-(Q1-B)*%
X157638750Y-73818750D03*
%TD*%
D10*
%TO.P,R3,1*%
%TO.N,Net-(D2-K)*%
X144780000Y-97631250D03*
D11*
%TO.P,R3,2*%
%TO.N,Net-(Q1-C)*%
X152400000Y-97631250D03*
%TD*%
D12*
%TO.P,Q2,1,C*%
%TO.N,Net-(Q2-C)*%
X119062500Y-98031250D03*
D13*
%TO.P,Q2,2,B*%
%TO.N,Net-(Q2-B)*%
X120332500Y-95961250D03*
%TO.P,Q2,3,E*%
%TO.N,Net-(Q1-E)*%
X121602500Y-98031250D03*
%TD*%
D12*
%TO.P,Q3,1,C*%
%TO.N,Net-(Q1-E)*%
X139223750Y-65963750D03*
D13*
%TO.P,Q3,2,B*%
%TO.N,Net-(Q3-B)*%
X140493750Y-63893750D03*
%TO.P,Q3,3,E*%
%TO.N,Net-(BT1--)*%
X141763750Y-65963750D03*
%TD*%
D14*
%TO.P,D2,1,K*%
%TO.N,Net-(D2-K)*%
X152241250Y-104775000D03*
D15*
%TO.P,D2,2,A*%
%TO.N,Net-(BT1-+)*%
X154781250Y-104775000D03*
%TD*%
D10*
%TO.P,R1,1*%
%TO.N,Net-(Q3-B)*%
X131921250Y-54768750D03*
D11*
%TO.P,R1,2*%
%TO.N,Net-(BT1-+)*%
X139541250Y-54768750D03*
%TD*%
D16*
%TO.P,SW2,1,1*%
%TO.N,Net-(Q1-B)*%
X161056250Y-71568750D03*
X167556250Y-71568750D03*
%TO.P,SW2,2,2*%
%TO.N,Net-(Q1-E)*%
X161056250Y-76068750D03*
X167556250Y-76068750D03*
%TD*%
D10*
%TO.P,R6,1*%
%TO.N,Net-(Q2-B)*%
X126206250Y-100012500D03*
D11*
%TO.P,R6,2*%
%TO.N,Net-(Q1-C)*%
X133826250Y-100012500D03*
%TD*%
D17*
%TO.P,R4,1*%
%TO.N,Net-(BT1--)*%
X130968750Y-61912500D03*
%TO.P,R4,2*%
%TO.N,Net-(Q3-B)*%
X134368750Y-61912500D03*
%TD*%
D10*
%TO.P,R2,1*%
%TO.N,Net-(D1-K)*%
X110490000Y-80962500D03*
D11*
%TO.P,R2,2*%
%TO.N,Net-(Q2-C)*%
X118110000Y-80962500D03*
%TD*%
D16*
%TO.P,SW1,1,1*%
%TO.N,Net-(Q1-E)*%
X115812500Y-104906250D03*
X122312500Y-104906250D03*
%TO.P,SW1,2,2*%
%TO.N,Net-(Q2-B)*%
X115812500Y-109406250D03*
X122312500Y-109406250D03*
%TD*%
D12*
%TO.P,Q1,1,C*%
%TO.N,Net-(Q1-C)*%
X154622500Y-81362500D03*
D13*
%TO.P,Q1,2,B*%
%TO.N,Net-(Q1-B)*%
X155892500Y-79292500D03*
%TO.P,Q1,3,E*%
%TO.N,Net-(Q1-E)*%
X157162500Y-81362500D03*
%TD*%
D14*
%TO.P,D1,1,K*%
%TO.N,Net-(D1-K)*%
X109537500Y-73818750D03*
D15*
%TO.P,D1,2,A*%
%TO.N,Net-(BT1-+)*%
X112077500Y-73818750D03*
%TD*%
D18*
%TO.P,BT1,1,+*%
%TO.N,Net-(BT1-+)*%
X145256250Y-80962500D03*
X123286250Y-80962500D03*
D19*
%TO.P,BT1,2,-*%
%TO.N,Net-(BT1--)*%
X134271250Y-80962500D03*
%TD*%
D20*
%TO.N,Net-(BT1-+)*%
X138112500Y-66563750D03*
%TO.N,Net-(Q2-C)*%
X140493750Y-90487500D03*
%TO.N,Net-(BT1-+)*%
X123825000Y-73818750D03*
X142875000Y-76200000D03*
%TO.N,Net-(Q1-E)*%
X157162500Y-71437500D03*
%TD*%
D21*
%TO.N,Net-(BT1-+)*%
X138112500Y-56197500D02*
X138112500Y-66563750D01*
X139541250Y-54768750D02*
X138112500Y-56197500D01*
%TO.N,Net-(Q2-C)*%
X127635000Y-90487500D02*
X140493750Y-90487500D01*
X118110000Y-80962500D02*
X127635000Y-90487500D01*
%TO.N,Net-(BT1-+)*%
X145256250Y-95250000D02*
X154781250Y-104775000D01*
X145256250Y-80962500D02*
X145256250Y-95250000D01*
%TO.N,Net-(Q2-B)*%
X122555000Y-96361250D02*
X120332500Y-96361250D01*
X126206250Y-100012500D02*
X122555000Y-96361250D01*
%TO.N,Net-(BT1--)*%
X141763750Y-65563750D02*
X140163750Y-67163750D01*
X140163750Y-67163750D02*
X136220000Y-67163750D01*
X134271250Y-80962500D02*
X141763750Y-73470000D01*
X136220000Y-67163750D02*
X130968750Y-61912500D01*
X141763750Y-73470000D02*
X141763750Y-65563750D01*
%TO.N,Net-(BT1-+)*%
X123286250Y-76738750D02*
X123286250Y-80962500D01*
X123825000Y-73818750D02*
X123825000Y-76200000D01*
X116142500Y-73818750D02*
X112077500Y-73818750D01*
X123825000Y-76200000D02*
X123286250Y-76738750D01*
X145256250Y-78581250D02*
X142875000Y-76200000D01*
X145256250Y-80962500D02*
X145256250Y-78581250D01*
X123286250Y-80962500D02*
X116142500Y-73818750D01*
%TO.N,Net-(D2-K)*%
X144780000Y-97631250D02*
X151923750Y-104775000D01*
X151923750Y-104775000D02*
X152241250Y-104775000D01*
%TO.N,Net-(Q1-E)*%
X157162500Y-71437500D02*
X161056250Y-75331250D01*
X161056250Y-75331250D02*
X161056250Y-76068750D01*
%TD*%
M02*
