%TF.GenerationSoftware,KiCad,Pcbnew,8.0.8*%
%TF.CreationDate,2025-06-30T13:56:02-06:00*%
%TF.ProjectId,SolderNunu,536f6c64-6572-44e7-956e-752e6b696361,rev?*%
%TF.SameCoordinates,Original*%
%TF.FileFunction,Legend,Top*%
%TF.FilePolarity,Positive*%
%FSLAX46Y46*%
G04 Gerber Fmt 4.6, Leading zero omitted, Abs format (unit mm)*
G04 Created by KiCad (PCBNEW 8.0.8) date 2025-06-30 13:56:02*
%MOMM*%
%LPD*%
G01*
G04 APERTURE LIST*
%ADD10C,0.100000*%
%ADD11C,0.150000*%
%ADD12C,0.000000*%
%ADD13C,0.120000*%
G04 APERTURE END LIST*
D10*
X117003526Y-84585749D02*
X116894273Y-84741778D01*
X117315583Y-84804254D02*
X117206331Y-84960283D01*
X118068415Y-85389525D02*
X118017714Y-85295891D01*
X118017714Y-85295891D02*
X117900692Y-85213952D01*
X117900692Y-85213952D02*
X117756357Y-85171020D01*
X117756357Y-85171020D02*
X117623717Y-85194408D01*
X117623717Y-85194408D02*
X117530083Y-85245109D01*
X117530083Y-85245109D02*
X117381823Y-85373825D01*
X117381823Y-85373825D02*
X117299884Y-85490847D01*
X117299884Y-85490847D02*
X117229638Y-85674189D01*
X117229638Y-85674189D02*
X117214019Y-85779516D01*
X117214019Y-85779516D02*
X117237407Y-85912157D01*
X117237407Y-85912157D02*
X117327116Y-86033104D01*
X117327116Y-86033104D02*
X117405130Y-86087730D01*
X117405130Y-86087730D02*
X117549465Y-86130662D01*
X117549465Y-86130662D02*
X117615786Y-86118968D01*
X117615786Y-86118968D02*
X117806978Y-85845918D01*
X117806978Y-85845918D02*
X117650949Y-85736665D01*
X118029246Y-86524741D02*
X117978545Y-86431107D01*
X117978545Y-86431107D02*
X117966851Y-86364787D01*
X117966851Y-86364787D02*
X117982470Y-86259459D01*
X117982470Y-86259459D02*
X118146349Y-86025416D01*
X118146349Y-86025416D02*
X118239982Y-85974714D01*
X118239982Y-85974714D02*
X118306303Y-85963020D01*
X118306303Y-85963020D02*
X118411630Y-85978639D01*
X118411630Y-85978639D02*
X118528652Y-86060579D01*
X118528652Y-86060579D02*
X118579353Y-86154213D01*
X118579353Y-86154213D02*
X118591048Y-86220533D01*
X118591048Y-86220533D02*
X118575428Y-86325861D01*
X118575428Y-86325861D02*
X118411549Y-86559904D01*
X118411549Y-86559904D02*
X118317916Y-86610605D01*
X118317916Y-86610605D02*
X118251595Y-86622299D01*
X118251595Y-86622299D02*
X118146268Y-86606680D01*
X118146268Y-86606680D02*
X118029246Y-86524741D01*
X119004427Y-87207570D02*
X119578004Y-86388418D01*
X119031740Y-87168563D02*
X118926413Y-87152944D01*
X118926413Y-87152944D02*
X118770384Y-87043691D01*
X118770384Y-87043691D02*
X118719682Y-86950057D01*
X118719682Y-86950057D02*
X118707988Y-86883737D01*
X118707988Y-86883737D02*
X118723607Y-86778409D01*
X118723607Y-86778409D02*
X118887486Y-86544366D01*
X118887486Y-86544366D02*
X118981120Y-86493665D01*
X118981120Y-86493665D02*
X119047440Y-86481971D01*
X119047440Y-86481971D02*
X119152768Y-86497590D01*
X119152768Y-86497590D02*
X119308797Y-86606842D01*
X119308797Y-86606842D02*
X119359498Y-86700476D01*
X120018616Y-87917712D02*
X120401000Y-87371611D01*
X120592192Y-87098560D02*
X120525872Y-87110254D01*
X120525872Y-87110254D02*
X120537566Y-87176575D01*
X120537566Y-87176575D02*
X120603886Y-87164881D01*
X120603886Y-87164881D02*
X120592192Y-87098560D01*
X120592192Y-87098560D02*
X120537566Y-87176575D01*
X120396994Y-88124523D02*
X120447695Y-88218157D01*
X120447695Y-88218157D02*
X120603724Y-88327410D01*
X120603724Y-88327410D02*
X120709052Y-88343029D01*
X120709052Y-88343029D02*
X120802685Y-88292327D01*
X120802685Y-88292327D02*
X120829998Y-88253320D01*
X120829998Y-88253320D02*
X120845617Y-88147992D01*
X120845617Y-88147992D02*
X120794916Y-88054359D01*
X120794916Y-88054359D02*
X120677894Y-87972419D01*
X120677894Y-87972419D02*
X120627193Y-87878786D01*
X120627193Y-87878786D02*
X120642812Y-87773458D01*
X120642812Y-87773458D02*
X120670125Y-87734451D01*
X120670125Y-87734451D02*
X120763759Y-87683750D01*
X120763759Y-87683750D02*
X120869087Y-87699369D01*
X120869087Y-87699369D02*
X120986108Y-87781308D01*
X120986108Y-87781308D02*
X121036810Y-87874942D01*
X122000297Y-88491451D02*
X121773941Y-89146805D01*
X121773941Y-89146805D02*
X122203102Y-88865985D01*
X122203102Y-88865985D02*
X122085999Y-89365310D01*
X122085999Y-89365310D02*
X122624413Y-88928461D01*
X122554086Y-89693068D02*
X122936471Y-89146967D01*
X123127663Y-88873916D02*
X123061342Y-88885610D01*
X123061342Y-88885610D02*
X123073036Y-88951930D01*
X123073036Y-88951930D02*
X123139357Y-88940236D01*
X123139357Y-88940236D02*
X123127663Y-88873916D01*
X123127663Y-88873916D02*
X123073036Y-88951930D01*
X123209521Y-89338159D02*
X123521579Y-89556664D01*
X123517735Y-89147047D02*
X123026098Y-89849178D01*
X123026098Y-89849178D02*
X123010479Y-89954505D01*
X123010479Y-89954505D02*
X123061180Y-90048139D01*
X123061180Y-90048139D02*
X123139194Y-90102765D01*
X123412246Y-90293958D02*
X123985822Y-89474806D01*
X123763311Y-90539776D02*
X124063755Y-90110696D01*
X124063755Y-90110696D02*
X124079375Y-90005369D01*
X124079375Y-90005369D02*
X124028673Y-89911735D01*
X124028673Y-89911735D02*
X123911652Y-89829796D01*
X123911652Y-89829796D02*
X123806324Y-89814177D01*
X123806324Y-89814177D02*
X123740003Y-89825871D01*
X124153383Y-90812908D02*
X124535767Y-90266806D01*
X124726960Y-89993756D02*
X124660639Y-90005450D01*
X124660639Y-90005450D02*
X124672333Y-90071770D01*
X124672333Y-90071770D02*
X124738654Y-90060076D01*
X124738654Y-90060076D02*
X124726960Y-89993756D01*
X124726960Y-89993756D02*
X124672333Y-90071770D01*
X124925839Y-90539938D02*
X124543455Y-91086039D01*
X124871213Y-90617952D02*
X124937534Y-90606258D01*
X124937534Y-90606258D02*
X125042861Y-90621877D01*
X125042861Y-90621877D02*
X125159883Y-90703817D01*
X125159883Y-90703817D02*
X125210584Y-90797450D01*
X125210584Y-90797450D02*
X125194965Y-90902778D01*
X125194965Y-90902778D02*
X124894520Y-91331858D01*
X115545530Y-86751003D02*
X116119107Y-85931851D01*
X115896595Y-86996822D02*
X116197040Y-86567742D01*
X116197040Y-86567742D02*
X116212659Y-86462414D01*
X116212659Y-86462414D02*
X116161958Y-86368781D01*
X116161958Y-86368781D02*
X116044936Y-86286841D01*
X116044936Y-86286841D02*
X115939609Y-86271222D01*
X115939609Y-86271222D02*
X115873288Y-86282916D01*
X116626039Y-87449451D02*
X116520711Y-87433832D01*
X116520711Y-87433832D02*
X116364682Y-87324580D01*
X116364682Y-87324580D02*
X116313981Y-87230946D01*
X116313981Y-87230946D02*
X116329600Y-87125618D01*
X116329600Y-87125618D02*
X116548106Y-86813560D01*
X116548106Y-86813560D02*
X116641739Y-86762859D01*
X116641739Y-86762859D02*
X116747067Y-86778478D01*
X116747067Y-86778478D02*
X116903096Y-86887731D01*
X116903096Y-86887731D02*
X116953797Y-86981364D01*
X116953797Y-86981364D02*
X116938178Y-87086692D01*
X116938178Y-87086692D02*
X116883552Y-87164707D01*
X116883552Y-87164707D02*
X116438853Y-86969589D01*
X116988798Y-87761590D02*
X117371183Y-87215489D01*
X117261930Y-87371518D02*
X117355564Y-87320817D01*
X117355564Y-87320817D02*
X117421884Y-87309123D01*
X117421884Y-87309123D02*
X117527212Y-87324742D01*
X117527212Y-87324742D02*
X117605226Y-87379368D01*
X117562213Y-88104968D02*
X117534900Y-88143975D01*
X117534900Y-88143975D02*
X117441267Y-88194676D01*
X117441267Y-88194676D02*
X117374946Y-88206370D01*
X118498387Y-88760483D02*
X118549088Y-88854117D01*
X118549088Y-88854117D02*
X118705117Y-88963370D01*
X118705117Y-88963370D02*
X118810445Y-88978989D01*
X118810445Y-88978989D02*
X118904078Y-88928287D01*
X118904078Y-88928287D02*
X118931391Y-88889280D01*
X118931391Y-88889280D02*
X118947011Y-88783952D01*
X118947011Y-88783952D02*
X118896309Y-88690319D01*
X118896309Y-88690319D02*
X118779288Y-88608379D01*
X118779288Y-88608379D02*
X118728586Y-88514746D01*
X118728586Y-88514746D02*
X118744205Y-88409418D01*
X118744205Y-88409418D02*
X118771518Y-88370411D01*
X118771518Y-88370411D02*
X118865152Y-88319710D01*
X118865152Y-88319710D02*
X118970480Y-88335329D01*
X118970480Y-88335329D02*
X119087501Y-88417268D01*
X119087501Y-88417268D02*
X119138203Y-88510902D01*
X119173204Y-89291128D02*
X119746781Y-88471976D01*
X119524269Y-89536946D02*
X119824714Y-89107867D01*
X119824714Y-89107867D02*
X119840333Y-89002539D01*
X119840333Y-89002539D02*
X119789632Y-88908905D01*
X119789632Y-88908905D02*
X119672610Y-88826966D01*
X119672610Y-88826966D02*
X119567282Y-88811347D01*
X119567282Y-88811347D02*
X119500962Y-88823041D01*
X120253713Y-89989576D02*
X120148385Y-89973957D01*
X120148385Y-89973957D02*
X119992356Y-89864704D01*
X119992356Y-89864704D02*
X119941655Y-89771071D01*
X119941655Y-89771071D02*
X119957274Y-89665743D01*
X119957274Y-89665743D02*
X120175779Y-89353685D01*
X120175779Y-89353685D02*
X120269413Y-89302984D01*
X120269413Y-89302984D02*
X120374741Y-89318603D01*
X120374741Y-89318603D02*
X120530770Y-89427855D01*
X120530770Y-89427855D02*
X120581471Y-89521489D01*
X120581471Y-89521489D02*
X120565852Y-89626817D01*
X120565852Y-89626817D02*
X120511225Y-89704831D01*
X120511225Y-89704831D02*
X120066527Y-89509714D01*
X121544958Y-90137998D02*
X121318603Y-90793352D01*
X121318603Y-90793352D02*
X121747763Y-90512532D01*
X121747763Y-90512532D02*
X121630661Y-91011857D01*
X121630661Y-91011857D02*
X122169074Y-90575009D01*
X122098747Y-91339615D02*
X122481132Y-90793514D01*
X122672324Y-90520463D02*
X122606004Y-90532157D01*
X122606004Y-90532157D02*
X122617698Y-90598478D01*
X122617698Y-90598478D02*
X122684018Y-90586784D01*
X122684018Y-90586784D02*
X122672324Y-90520463D01*
X122672324Y-90520463D02*
X122617698Y-90598478D01*
X122605841Y-91694686D02*
X122555140Y-91601052D01*
X122555140Y-91601052D02*
X122570759Y-91495725D01*
X122570759Y-91495725D02*
X123062396Y-90793595D01*
X123034921Y-91995131D02*
X122984220Y-91901498D01*
X122984220Y-91901498D02*
X122999839Y-91796170D01*
X122999839Y-91796170D02*
X123491476Y-91094040D01*
X115004489Y-87523691D02*
X114622104Y-88069792D01*
X114949862Y-87601705D02*
X115016183Y-87590011D01*
X115016183Y-87590011D02*
X115121510Y-87605630D01*
X115121510Y-87605630D02*
X115238532Y-87687570D01*
X115238532Y-87687570D02*
X115289233Y-87781203D01*
X115289233Y-87781203D02*
X115273614Y-87886531D01*
X115273614Y-87886531D02*
X114973169Y-88315611D01*
X115480264Y-88670682D02*
X115429562Y-88577048D01*
X115429562Y-88577048D02*
X115417868Y-88510728D01*
X115417868Y-88510728D02*
X115433487Y-88405400D01*
X115433487Y-88405400D02*
X115597366Y-88171357D01*
X115597366Y-88171357D02*
X115691000Y-88120655D01*
X115691000Y-88120655D02*
X115757320Y-88108961D01*
X115757320Y-88108961D02*
X115862648Y-88124580D01*
X115862648Y-88124580D02*
X115979670Y-88206520D01*
X115979670Y-88206520D02*
X116030371Y-88300153D01*
X116030371Y-88300153D02*
X116042065Y-88366474D01*
X116042065Y-88366474D02*
X116026446Y-88471802D01*
X116026446Y-88471802D02*
X115862567Y-88705845D01*
X115862567Y-88705845D02*
X115768933Y-88756546D01*
X115768933Y-88756546D02*
X115702613Y-88768240D01*
X115702613Y-88768240D02*
X115597285Y-88752621D01*
X115597285Y-88752621D02*
X115480264Y-88670682D01*
X116369742Y-88479652D02*
X116681800Y-88698157D01*
X116677956Y-88288540D02*
X116186319Y-88990671D01*
X116186319Y-88990671D02*
X116170700Y-89095998D01*
X116170700Y-89095998D02*
X116221401Y-89189632D01*
X116221401Y-89189632D02*
X116299416Y-89244258D01*
X117461945Y-89244421D02*
X117774003Y-89462926D01*
X117196583Y-89872461D02*
X117688220Y-89170331D01*
X117688220Y-89170331D02*
X117781853Y-89119630D01*
X117781853Y-89119630D02*
X117887181Y-89135249D01*
X117887181Y-89135249D02*
X117965196Y-89189875D01*
X118015735Y-90446038D02*
X118316180Y-90016958D01*
X118316180Y-90016958D02*
X118331799Y-89911631D01*
X118331799Y-89911631D02*
X118281098Y-89817997D01*
X118281098Y-89817997D02*
X118125069Y-89708745D01*
X118125069Y-89708745D02*
X118019741Y-89693126D01*
X118043048Y-90407031D02*
X117937721Y-90391412D01*
X117937721Y-90391412D02*
X117742685Y-90254846D01*
X117742685Y-90254846D02*
X117691983Y-90161212D01*
X117691983Y-90161212D02*
X117707602Y-90055885D01*
X117707602Y-90055885D02*
X117762229Y-89977870D01*
X117762229Y-89977870D02*
X117855862Y-89927169D01*
X117855862Y-89927169D02*
X117961190Y-89942788D01*
X117961190Y-89942788D02*
X118156226Y-90079354D01*
X118156226Y-90079354D02*
X118261554Y-90094973D01*
X118522829Y-90801109D02*
X118472128Y-90707476D01*
X118472128Y-90707476D02*
X118487747Y-90602148D01*
X118487747Y-90602148D02*
X118979384Y-89900018D01*
X118951910Y-91101554D02*
X118901208Y-91007921D01*
X118901208Y-91007921D02*
X118916827Y-90902593D01*
X118916827Y-90902593D02*
X119408464Y-90200463D01*
X119798537Y-90473595D02*
X119689284Y-90629624D01*
X120110595Y-90692100D02*
X120001342Y-90848129D01*
X145512515Y-83758781D02*
X145512515Y-83949257D01*
X145893467Y-83758781D02*
X145893467Y-83949257D01*
X146322039Y-84758781D02*
X146322039Y-84092114D01*
X146322039Y-84187352D02*
X146369658Y-84139733D01*
X146369658Y-84139733D02*
X146464896Y-84092114D01*
X146464896Y-84092114D02*
X146607753Y-84092114D01*
X146607753Y-84092114D02*
X146702991Y-84139733D01*
X146702991Y-84139733D02*
X146750610Y-84234971D01*
X146750610Y-84234971D02*
X146750610Y-84758781D01*
X146750610Y-84234971D02*
X146798229Y-84139733D01*
X146798229Y-84139733D02*
X146893467Y-84092114D01*
X146893467Y-84092114D02*
X147036324Y-84092114D01*
X147036324Y-84092114D02*
X147131563Y-84139733D01*
X147131563Y-84139733D02*
X147179182Y-84234971D01*
X147179182Y-84234971D02*
X147179182Y-84758781D01*
X147560134Y-84092114D02*
X147798229Y-84758781D01*
X148036324Y-84092114D02*
X147798229Y-84758781D01*
X147798229Y-84758781D02*
X147702991Y-84996876D01*
X147702991Y-84996876D02*
X147655372Y-85044495D01*
X147655372Y-85044495D02*
X147560134Y-85092114D01*
X149702991Y-83806400D02*
X149607753Y-83758781D01*
X149607753Y-83758781D02*
X149464896Y-83758781D01*
X149464896Y-83758781D02*
X149322039Y-83806400D01*
X149322039Y-83806400D02*
X149226801Y-83901638D01*
X149226801Y-83901638D02*
X149179182Y-83996876D01*
X149179182Y-83996876D02*
X149131563Y-84187352D01*
X149131563Y-84187352D02*
X149131563Y-84330209D01*
X149131563Y-84330209D02*
X149179182Y-84520685D01*
X149179182Y-84520685D02*
X149226801Y-84615923D01*
X149226801Y-84615923D02*
X149322039Y-84711162D01*
X149322039Y-84711162D02*
X149464896Y-84758781D01*
X149464896Y-84758781D02*
X149560134Y-84758781D01*
X149560134Y-84758781D02*
X149702991Y-84711162D01*
X149702991Y-84711162D02*
X149750610Y-84663542D01*
X149750610Y-84663542D02*
X149750610Y-84330209D01*
X149750610Y-84330209D02*
X149560134Y-84330209D01*
X150322039Y-84758781D02*
X150226801Y-84711162D01*
X150226801Y-84711162D02*
X150179182Y-84663542D01*
X150179182Y-84663542D02*
X150131563Y-84568304D01*
X150131563Y-84568304D02*
X150131563Y-84282590D01*
X150131563Y-84282590D02*
X150179182Y-84187352D01*
X150179182Y-84187352D02*
X150226801Y-84139733D01*
X150226801Y-84139733D02*
X150322039Y-84092114D01*
X150322039Y-84092114D02*
X150464896Y-84092114D01*
X150464896Y-84092114D02*
X150560134Y-84139733D01*
X150560134Y-84139733D02*
X150607753Y-84187352D01*
X150607753Y-84187352D02*
X150655372Y-84282590D01*
X150655372Y-84282590D02*
X150655372Y-84568304D01*
X150655372Y-84568304D02*
X150607753Y-84663542D01*
X150607753Y-84663542D02*
X150560134Y-84711162D01*
X150560134Y-84711162D02*
X150464896Y-84758781D01*
X150464896Y-84758781D02*
X150322039Y-84758781D01*
X151512515Y-84758781D02*
X151512515Y-83758781D01*
X151512515Y-84711162D02*
X151417277Y-84758781D01*
X151417277Y-84758781D02*
X151226801Y-84758781D01*
X151226801Y-84758781D02*
X151131563Y-84711162D01*
X151131563Y-84711162D02*
X151083944Y-84663542D01*
X151083944Y-84663542D02*
X151036325Y-84568304D01*
X151036325Y-84568304D02*
X151036325Y-84282590D01*
X151036325Y-84282590D02*
X151083944Y-84187352D01*
X151083944Y-84187352D02*
X151131563Y-84139733D01*
X151131563Y-84139733D02*
X151226801Y-84092114D01*
X151226801Y-84092114D02*
X151417277Y-84092114D01*
X151417277Y-84092114D02*
X151512515Y-84139733D01*
X152607754Y-84092114D02*
X152988706Y-84092114D01*
X152750611Y-83758781D02*
X152750611Y-84615923D01*
X152750611Y-84615923D02*
X152798230Y-84711162D01*
X152798230Y-84711162D02*
X152893468Y-84758781D01*
X152893468Y-84758781D02*
X152988706Y-84758781D01*
X153750611Y-84092114D02*
X153750611Y-84758781D01*
X153322040Y-84092114D02*
X153322040Y-84615923D01*
X153322040Y-84615923D02*
X153369659Y-84711162D01*
X153369659Y-84711162D02*
X153464897Y-84758781D01*
X153464897Y-84758781D02*
X153607754Y-84758781D01*
X153607754Y-84758781D02*
X153702992Y-84711162D01*
X153702992Y-84711162D02*
X153750611Y-84663542D01*
X154226802Y-84758781D02*
X154226802Y-84092114D01*
X154226802Y-84282590D02*
X154274421Y-84187352D01*
X154274421Y-84187352D02*
X154322040Y-84139733D01*
X154322040Y-84139733D02*
X154417278Y-84092114D01*
X154417278Y-84092114D02*
X154512516Y-84092114D01*
X154845850Y-84092114D02*
X154845850Y-84758781D01*
X154845850Y-84187352D02*
X154893469Y-84139733D01*
X154893469Y-84139733D02*
X154988707Y-84092114D01*
X154988707Y-84092114D02*
X155131564Y-84092114D01*
X155131564Y-84092114D02*
X155226802Y-84139733D01*
X155226802Y-84139733D02*
X155274421Y-84234971D01*
X155274421Y-84234971D02*
X155274421Y-84758781D01*
X155702993Y-84711162D02*
X155798231Y-84758781D01*
X155798231Y-84758781D02*
X155988707Y-84758781D01*
X155988707Y-84758781D02*
X156083945Y-84711162D01*
X156083945Y-84711162D02*
X156131564Y-84615923D01*
X156131564Y-84615923D02*
X156131564Y-84568304D01*
X156131564Y-84568304D02*
X156083945Y-84473066D01*
X156083945Y-84473066D02*
X155988707Y-84425447D01*
X155988707Y-84425447D02*
X155845850Y-84425447D01*
X155845850Y-84425447D02*
X155750612Y-84377828D01*
X155750612Y-84377828D02*
X155702993Y-84282590D01*
X155702993Y-84282590D02*
X155702993Y-84234971D01*
X155702993Y-84234971D02*
X155750612Y-84139733D01*
X155750612Y-84139733D02*
X155845850Y-84092114D01*
X155845850Y-84092114D02*
X155988707Y-84092114D01*
X155988707Y-84092114D02*
X156083945Y-84139733D01*
X145560134Y-86368725D02*
X145560134Y-85702058D01*
X145560134Y-85797296D02*
X145607753Y-85749677D01*
X145607753Y-85749677D02*
X145702991Y-85702058D01*
X145702991Y-85702058D02*
X145845848Y-85702058D01*
X145845848Y-85702058D02*
X145941086Y-85749677D01*
X145941086Y-85749677D02*
X145988705Y-85844915D01*
X145988705Y-85844915D02*
X145988705Y-86368725D01*
X145988705Y-85844915D02*
X146036324Y-85749677D01*
X146036324Y-85749677D02*
X146131562Y-85702058D01*
X146131562Y-85702058D02*
X146274419Y-85702058D01*
X146274419Y-85702058D02*
X146369658Y-85749677D01*
X146369658Y-85749677D02*
X146417277Y-85844915D01*
X146417277Y-85844915D02*
X146417277Y-86368725D01*
X146798229Y-85702058D02*
X147036324Y-86368725D01*
X147274419Y-85702058D02*
X147036324Y-86368725D01*
X147036324Y-86368725D02*
X146941086Y-86606820D01*
X146941086Y-86606820D02*
X146893467Y-86654439D01*
X146893467Y-86654439D02*
X146798229Y-86702058D01*
X148845848Y-86368725D02*
X148845848Y-85368725D01*
X148845848Y-86321106D02*
X148750610Y-86368725D01*
X148750610Y-86368725D02*
X148560134Y-86368725D01*
X148560134Y-86368725D02*
X148464896Y-86321106D01*
X148464896Y-86321106D02*
X148417277Y-86273486D01*
X148417277Y-86273486D02*
X148369658Y-86178248D01*
X148369658Y-86178248D02*
X148369658Y-85892534D01*
X148369658Y-85892534D02*
X148417277Y-85797296D01*
X148417277Y-85797296D02*
X148464896Y-85749677D01*
X148464896Y-85749677D02*
X148560134Y-85702058D01*
X148560134Y-85702058D02*
X148750610Y-85702058D01*
X148750610Y-85702058D02*
X148845848Y-85749677D01*
X149750610Y-86368725D02*
X149750610Y-85844915D01*
X149750610Y-85844915D02*
X149702991Y-85749677D01*
X149702991Y-85749677D02*
X149607753Y-85702058D01*
X149607753Y-85702058D02*
X149417277Y-85702058D01*
X149417277Y-85702058D02*
X149322039Y-85749677D01*
X149750610Y-86321106D02*
X149655372Y-86368725D01*
X149655372Y-86368725D02*
X149417277Y-86368725D01*
X149417277Y-86368725D02*
X149322039Y-86321106D01*
X149322039Y-86321106D02*
X149274420Y-86225867D01*
X149274420Y-86225867D02*
X149274420Y-86130629D01*
X149274420Y-86130629D02*
X149322039Y-86035391D01*
X149322039Y-86035391D02*
X149417277Y-85987772D01*
X149417277Y-85987772D02*
X149655372Y-85987772D01*
X149655372Y-85987772D02*
X149750610Y-85940153D01*
X150226801Y-86368725D02*
X150226801Y-85702058D01*
X150226801Y-85892534D02*
X150274420Y-85797296D01*
X150274420Y-85797296D02*
X150322039Y-85749677D01*
X150322039Y-85749677D02*
X150417277Y-85702058D01*
X150417277Y-85702058D02*
X150512515Y-85702058D01*
X150845849Y-86368725D02*
X150845849Y-85368725D01*
X150941087Y-85987772D02*
X151226801Y-86368725D01*
X151226801Y-85702058D02*
X150845849Y-86083010D01*
X151655373Y-85702058D02*
X151655373Y-86368725D01*
X151655373Y-85797296D02*
X151702992Y-85749677D01*
X151702992Y-85749677D02*
X151798230Y-85702058D01*
X151798230Y-85702058D02*
X151941087Y-85702058D01*
X151941087Y-85702058D02*
X152036325Y-85749677D01*
X152036325Y-85749677D02*
X152083944Y-85844915D01*
X152083944Y-85844915D02*
X152083944Y-86368725D01*
X152941087Y-86321106D02*
X152845849Y-86368725D01*
X152845849Y-86368725D02*
X152655373Y-86368725D01*
X152655373Y-86368725D02*
X152560135Y-86321106D01*
X152560135Y-86321106D02*
X152512516Y-86225867D01*
X152512516Y-86225867D02*
X152512516Y-85844915D01*
X152512516Y-85844915D02*
X152560135Y-85749677D01*
X152560135Y-85749677D02*
X152655373Y-85702058D01*
X152655373Y-85702058D02*
X152845849Y-85702058D01*
X152845849Y-85702058D02*
X152941087Y-85749677D01*
X152941087Y-85749677D02*
X152988706Y-85844915D01*
X152988706Y-85844915D02*
X152988706Y-85940153D01*
X152988706Y-85940153D02*
X152512516Y-86035391D01*
X153369659Y-86321106D02*
X153464897Y-86368725D01*
X153464897Y-86368725D02*
X153655373Y-86368725D01*
X153655373Y-86368725D02*
X153750611Y-86321106D01*
X153750611Y-86321106D02*
X153798230Y-86225867D01*
X153798230Y-86225867D02*
X153798230Y-86178248D01*
X153798230Y-86178248D02*
X153750611Y-86083010D01*
X153750611Y-86083010D02*
X153655373Y-86035391D01*
X153655373Y-86035391D02*
X153512516Y-86035391D01*
X153512516Y-86035391D02*
X153417278Y-85987772D01*
X153417278Y-85987772D02*
X153369659Y-85892534D01*
X153369659Y-85892534D02*
X153369659Y-85844915D01*
X153369659Y-85844915D02*
X153417278Y-85749677D01*
X153417278Y-85749677D02*
X153512516Y-85702058D01*
X153512516Y-85702058D02*
X153655373Y-85702058D01*
X153655373Y-85702058D02*
X153750611Y-85749677D01*
X154179183Y-86321106D02*
X154274421Y-86368725D01*
X154274421Y-86368725D02*
X154464897Y-86368725D01*
X154464897Y-86368725D02*
X154560135Y-86321106D01*
X154560135Y-86321106D02*
X154607754Y-86225867D01*
X154607754Y-86225867D02*
X154607754Y-86178248D01*
X154607754Y-86178248D02*
X154560135Y-86083010D01*
X154560135Y-86083010D02*
X154464897Y-86035391D01*
X154464897Y-86035391D02*
X154322040Y-86035391D01*
X154322040Y-86035391D02*
X154226802Y-85987772D01*
X154226802Y-85987772D02*
X154179183Y-85892534D01*
X154179183Y-85892534D02*
X154179183Y-85844915D01*
X154179183Y-85844915D02*
X154226802Y-85749677D01*
X154226802Y-85749677D02*
X154322040Y-85702058D01*
X154322040Y-85702058D02*
X154464897Y-85702058D01*
X154464897Y-85702058D02*
X154560135Y-85749677D01*
X145560134Y-87978669D02*
X145560134Y-87312002D01*
X145560134Y-86978669D02*
X145512515Y-87026288D01*
X145512515Y-87026288D02*
X145560134Y-87073907D01*
X145560134Y-87073907D02*
X145607753Y-87026288D01*
X145607753Y-87026288D02*
X145560134Y-86978669D01*
X145560134Y-86978669D02*
X145560134Y-87073907D01*
X146036324Y-87312002D02*
X146036324Y-87978669D01*
X146036324Y-87407240D02*
X146083943Y-87359621D01*
X146083943Y-87359621D02*
X146179181Y-87312002D01*
X146179181Y-87312002D02*
X146322038Y-87312002D01*
X146322038Y-87312002D02*
X146417276Y-87359621D01*
X146417276Y-87359621D02*
X146464895Y-87454859D01*
X146464895Y-87454859D02*
X146464895Y-87978669D01*
X146798229Y-87312002D02*
X147179181Y-87312002D01*
X146941086Y-86978669D02*
X146941086Y-87835811D01*
X146941086Y-87835811D02*
X146988705Y-87931050D01*
X146988705Y-87931050D02*
X147083943Y-87978669D01*
X147083943Y-87978669D02*
X147179181Y-87978669D01*
X147655372Y-87978669D02*
X147560134Y-87931050D01*
X147560134Y-87931050D02*
X147512515Y-87883430D01*
X147512515Y-87883430D02*
X147464896Y-87788192D01*
X147464896Y-87788192D02*
X147464896Y-87502478D01*
X147464896Y-87502478D02*
X147512515Y-87407240D01*
X147512515Y-87407240D02*
X147560134Y-87359621D01*
X147560134Y-87359621D02*
X147655372Y-87312002D01*
X147655372Y-87312002D02*
X147798229Y-87312002D01*
X147798229Y-87312002D02*
X147893467Y-87359621D01*
X147893467Y-87359621D02*
X147941086Y-87407240D01*
X147941086Y-87407240D02*
X147988705Y-87502478D01*
X147988705Y-87502478D02*
X147988705Y-87788192D01*
X147988705Y-87788192D02*
X147941086Y-87883430D01*
X147941086Y-87883430D02*
X147893467Y-87931050D01*
X147893467Y-87931050D02*
X147798229Y-87978669D01*
X147798229Y-87978669D02*
X147655372Y-87978669D01*
X149322039Y-87978669D02*
X149226801Y-87931050D01*
X149226801Y-87931050D02*
X149179182Y-87835811D01*
X149179182Y-87835811D02*
X149179182Y-86978669D01*
X149702992Y-87978669D02*
X149702992Y-87312002D01*
X149702992Y-86978669D02*
X149655373Y-87026288D01*
X149655373Y-87026288D02*
X149702992Y-87073907D01*
X149702992Y-87073907D02*
X149750611Y-87026288D01*
X149750611Y-87026288D02*
X149702992Y-86978669D01*
X149702992Y-86978669D02*
X149702992Y-87073907D01*
X150607753Y-87312002D02*
X150607753Y-88121526D01*
X150607753Y-88121526D02*
X150560134Y-88216764D01*
X150560134Y-88216764D02*
X150512515Y-88264383D01*
X150512515Y-88264383D02*
X150417277Y-88312002D01*
X150417277Y-88312002D02*
X150274420Y-88312002D01*
X150274420Y-88312002D02*
X150179182Y-88264383D01*
X150607753Y-87931050D02*
X150512515Y-87978669D01*
X150512515Y-87978669D02*
X150322039Y-87978669D01*
X150322039Y-87978669D02*
X150226801Y-87931050D01*
X150226801Y-87931050D02*
X150179182Y-87883430D01*
X150179182Y-87883430D02*
X150131563Y-87788192D01*
X150131563Y-87788192D02*
X150131563Y-87502478D01*
X150131563Y-87502478D02*
X150179182Y-87407240D01*
X150179182Y-87407240D02*
X150226801Y-87359621D01*
X150226801Y-87359621D02*
X150322039Y-87312002D01*
X150322039Y-87312002D02*
X150512515Y-87312002D01*
X150512515Y-87312002D02*
X150607753Y-87359621D01*
X151083944Y-87978669D02*
X151083944Y-86978669D01*
X151512515Y-87978669D02*
X151512515Y-87454859D01*
X151512515Y-87454859D02*
X151464896Y-87359621D01*
X151464896Y-87359621D02*
X151369658Y-87312002D01*
X151369658Y-87312002D02*
X151226801Y-87312002D01*
X151226801Y-87312002D02*
X151131563Y-87359621D01*
X151131563Y-87359621D02*
X151083944Y-87407240D01*
X151845849Y-87312002D02*
X152226801Y-87312002D01*
X151988706Y-86978669D02*
X151988706Y-87835811D01*
X151988706Y-87835811D02*
X152036325Y-87931050D01*
X152036325Y-87931050D02*
X152131563Y-87978669D01*
X152131563Y-87978669D02*
X152226801Y-87978669D01*
X152560135Y-87883430D02*
X152607754Y-87931050D01*
X152607754Y-87931050D02*
X152560135Y-87978669D01*
X152560135Y-87978669D02*
X152512516Y-87931050D01*
X152512516Y-87931050D02*
X152560135Y-87883430D01*
X152560135Y-87883430D02*
X152560135Y-87978669D01*
X152988706Y-86978669D02*
X152988706Y-87169145D01*
X153369658Y-86978669D02*
X153369658Y-87169145D01*
D11*
X153662083Y-71903569D02*
X153328750Y-71427378D01*
X153090655Y-71903569D02*
X153090655Y-70903569D01*
X153090655Y-70903569D02*
X153471607Y-70903569D01*
X153471607Y-70903569D02*
X153566845Y-70951188D01*
X153566845Y-70951188D02*
X153614464Y-70998807D01*
X153614464Y-70998807D02*
X153662083Y-71094045D01*
X153662083Y-71094045D02*
X153662083Y-71236902D01*
X153662083Y-71236902D02*
X153614464Y-71332140D01*
X153614464Y-71332140D02*
X153566845Y-71379759D01*
X153566845Y-71379759D02*
X153471607Y-71427378D01*
X153471607Y-71427378D02*
X153090655Y-71427378D01*
X154566845Y-70903569D02*
X154090655Y-70903569D01*
X154090655Y-70903569D02*
X154043036Y-71379759D01*
X154043036Y-71379759D02*
X154090655Y-71332140D01*
X154090655Y-71332140D02*
X154185893Y-71284521D01*
X154185893Y-71284521D02*
X154423988Y-71284521D01*
X154423988Y-71284521D02*
X154519226Y-71332140D01*
X154519226Y-71332140D02*
X154566845Y-71379759D01*
X154566845Y-71379759D02*
X154614464Y-71474997D01*
X154614464Y-71474997D02*
X154614464Y-71713092D01*
X154614464Y-71713092D02*
X154566845Y-71808330D01*
X154566845Y-71808330D02*
X154519226Y-71855950D01*
X154519226Y-71855950D02*
X154423988Y-71903569D01*
X154423988Y-71903569D02*
X154185893Y-71903569D01*
X154185893Y-71903569D02*
X154090655Y-71855950D01*
X154090655Y-71855950D02*
X154043036Y-71808330D01*
X148423333Y-95716069D02*
X148090000Y-95239878D01*
X147851905Y-95716069D02*
X147851905Y-94716069D01*
X147851905Y-94716069D02*
X148232857Y-94716069D01*
X148232857Y-94716069D02*
X148328095Y-94763688D01*
X148328095Y-94763688D02*
X148375714Y-94811307D01*
X148375714Y-94811307D02*
X148423333Y-94906545D01*
X148423333Y-94906545D02*
X148423333Y-95049402D01*
X148423333Y-95049402D02*
X148375714Y-95144640D01*
X148375714Y-95144640D02*
X148328095Y-95192259D01*
X148328095Y-95192259D02*
X148232857Y-95239878D01*
X148232857Y-95239878D02*
X147851905Y-95239878D01*
X148756667Y-94716069D02*
X149375714Y-94716069D01*
X149375714Y-94716069D02*
X149042381Y-95097021D01*
X149042381Y-95097021D02*
X149185238Y-95097021D01*
X149185238Y-95097021D02*
X149280476Y-95144640D01*
X149280476Y-95144640D02*
X149328095Y-95192259D01*
X149328095Y-95192259D02*
X149375714Y-95287497D01*
X149375714Y-95287497D02*
X149375714Y-95525592D01*
X149375714Y-95525592D02*
X149328095Y-95620830D01*
X149328095Y-95620830D02*
X149280476Y-95668450D01*
X149280476Y-95668450D02*
X149185238Y-95716069D01*
X149185238Y-95716069D02*
X148899524Y-95716069D01*
X148899524Y-95716069D02*
X148804286Y-95668450D01*
X148804286Y-95668450D02*
X148756667Y-95620830D01*
X120237261Y-94381307D02*
X120142023Y-94333688D01*
X120142023Y-94333688D02*
X120046785Y-94238450D01*
X120046785Y-94238450D02*
X119903928Y-94095592D01*
X119903928Y-94095592D02*
X119808690Y-94047973D01*
X119808690Y-94047973D02*
X119713452Y-94047973D01*
X119761071Y-94286069D02*
X119665833Y-94238450D01*
X119665833Y-94238450D02*
X119570595Y-94143211D01*
X119570595Y-94143211D02*
X119522976Y-93952735D01*
X119522976Y-93952735D02*
X119522976Y-93619402D01*
X119522976Y-93619402D02*
X119570595Y-93428926D01*
X119570595Y-93428926D02*
X119665833Y-93333688D01*
X119665833Y-93333688D02*
X119761071Y-93286069D01*
X119761071Y-93286069D02*
X119951547Y-93286069D01*
X119951547Y-93286069D02*
X120046785Y-93333688D01*
X120046785Y-93333688D02*
X120142023Y-93428926D01*
X120142023Y-93428926D02*
X120189642Y-93619402D01*
X120189642Y-93619402D02*
X120189642Y-93952735D01*
X120189642Y-93952735D02*
X120142023Y-94143211D01*
X120142023Y-94143211D02*
X120046785Y-94238450D01*
X120046785Y-94238450D02*
X119951547Y-94286069D01*
X119951547Y-94286069D02*
X119761071Y-94286069D01*
X120570595Y-93381307D02*
X120618214Y-93333688D01*
X120618214Y-93333688D02*
X120713452Y-93286069D01*
X120713452Y-93286069D02*
X120951547Y-93286069D01*
X120951547Y-93286069D02*
X121046785Y-93333688D01*
X121046785Y-93333688D02*
X121094404Y-93381307D01*
X121094404Y-93381307D02*
X121142023Y-93476545D01*
X121142023Y-93476545D02*
X121142023Y-93571783D01*
X121142023Y-93571783D02*
X121094404Y-93714640D01*
X121094404Y-93714640D02*
X120522976Y-94286069D01*
X120522976Y-94286069D02*
X121142023Y-94286069D01*
X140398511Y-62313807D02*
X140303273Y-62266188D01*
X140303273Y-62266188D02*
X140208035Y-62170950D01*
X140208035Y-62170950D02*
X140065178Y-62028092D01*
X140065178Y-62028092D02*
X139969940Y-61980473D01*
X139969940Y-61980473D02*
X139874702Y-61980473D01*
X139922321Y-62218569D02*
X139827083Y-62170950D01*
X139827083Y-62170950D02*
X139731845Y-62075711D01*
X139731845Y-62075711D02*
X139684226Y-61885235D01*
X139684226Y-61885235D02*
X139684226Y-61551902D01*
X139684226Y-61551902D02*
X139731845Y-61361426D01*
X139731845Y-61361426D02*
X139827083Y-61266188D01*
X139827083Y-61266188D02*
X139922321Y-61218569D01*
X139922321Y-61218569D02*
X140112797Y-61218569D01*
X140112797Y-61218569D02*
X140208035Y-61266188D01*
X140208035Y-61266188D02*
X140303273Y-61361426D01*
X140303273Y-61361426D02*
X140350892Y-61551902D01*
X140350892Y-61551902D02*
X140350892Y-61885235D01*
X140350892Y-61885235D02*
X140303273Y-62075711D01*
X140303273Y-62075711D02*
X140208035Y-62170950D01*
X140208035Y-62170950D02*
X140112797Y-62218569D01*
X140112797Y-62218569D02*
X139922321Y-62218569D01*
X140684226Y-61218569D02*
X141303273Y-61218569D01*
X141303273Y-61218569D02*
X140969940Y-61599521D01*
X140969940Y-61599521D02*
X141112797Y-61599521D01*
X141112797Y-61599521D02*
X141208035Y-61647140D01*
X141208035Y-61647140D02*
X141255654Y-61694759D01*
X141255654Y-61694759D02*
X141303273Y-61789997D01*
X141303273Y-61789997D02*
X141303273Y-62028092D01*
X141303273Y-62028092D02*
X141255654Y-62123330D01*
X141255654Y-62123330D02*
X141208035Y-62170950D01*
X141208035Y-62170950D02*
X141112797Y-62218569D01*
X141112797Y-62218569D02*
X140827083Y-62218569D01*
X140827083Y-62218569D02*
X140731845Y-62170950D01*
X140731845Y-62170950D02*
X140684226Y-62123330D01*
X152773155Y-101269819D02*
X152773155Y-100269819D01*
X152773155Y-100269819D02*
X153011250Y-100269819D01*
X153011250Y-100269819D02*
X153154107Y-100317438D01*
X153154107Y-100317438D02*
X153249345Y-100412676D01*
X153249345Y-100412676D02*
X153296964Y-100507914D01*
X153296964Y-100507914D02*
X153344583Y-100698390D01*
X153344583Y-100698390D02*
X153344583Y-100841247D01*
X153344583Y-100841247D02*
X153296964Y-101031723D01*
X153296964Y-101031723D02*
X153249345Y-101126961D01*
X153249345Y-101126961D02*
X153154107Y-101222200D01*
X153154107Y-101222200D02*
X153011250Y-101269819D01*
X153011250Y-101269819D02*
X152773155Y-101269819D01*
X153725536Y-100365057D02*
X153773155Y-100317438D01*
X153773155Y-100317438D02*
X153868393Y-100269819D01*
X153868393Y-100269819D02*
X154106488Y-100269819D01*
X154106488Y-100269819D02*
X154201726Y-100317438D01*
X154201726Y-100317438D02*
X154249345Y-100365057D01*
X154249345Y-100365057D02*
X154296964Y-100460295D01*
X154296964Y-100460295D02*
X154296964Y-100555533D01*
X154296964Y-100555533D02*
X154249345Y-100698390D01*
X154249345Y-100698390D02*
X153677917Y-101269819D01*
X153677917Y-101269819D02*
X154296964Y-101269819D01*
X135564583Y-52853569D02*
X135231250Y-52377378D01*
X134993155Y-52853569D02*
X134993155Y-51853569D01*
X134993155Y-51853569D02*
X135374107Y-51853569D01*
X135374107Y-51853569D02*
X135469345Y-51901188D01*
X135469345Y-51901188D02*
X135516964Y-51948807D01*
X135516964Y-51948807D02*
X135564583Y-52044045D01*
X135564583Y-52044045D02*
X135564583Y-52186902D01*
X135564583Y-52186902D02*
X135516964Y-52282140D01*
X135516964Y-52282140D02*
X135469345Y-52329759D01*
X135469345Y-52329759D02*
X135374107Y-52377378D01*
X135374107Y-52377378D02*
X134993155Y-52377378D01*
X136516964Y-52853569D02*
X135945536Y-52853569D01*
X136231250Y-52853569D02*
X136231250Y-51853569D01*
X136231250Y-51853569D02*
X136136012Y-51996426D01*
X136136012Y-51996426D02*
X136040774Y-52091664D01*
X136040774Y-52091664D02*
X135945536Y-52139283D01*
X162972917Y-69975950D02*
X163115774Y-70023569D01*
X163115774Y-70023569D02*
X163353869Y-70023569D01*
X163353869Y-70023569D02*
X163449107Y-69975950D01*
X163449107Y-69975950D02*
X163496726Y-69928330D01*
X163496726Y-69928330D02*
X163544345Y-69833092D01*
X163544345Y-69833092D02*
X163544345Y-69737854D01*
X163544345Y-69737854D02*
X163496726Y-69642616D01*
X163496726Y-69642616D02*
X163449107Y-69594997D01*
X163449107Y-69594997D02*
X163353869Y-69547378D01*
X163353869Y-69547378D02*
X163163393Y-69499759D01*
X163163393Y-69499759D02*
X163068155Y-69452140D01*
X163068155Y-69452140D02*
X163020536Y-69404521D01*
X163020536Y-69404521D02*
X162972917Y-69309283D01*
X162972917Y-69309283D02*
X162972917Y-69214045D01*
X162972917Y-69214045D02*
X163020536Y-69118807D01*
X163020536Y-69118807D02*
X163068155Y-69071188D01*
X163068155Y-69071188D02*
X163163393Y-69023569D01*
X163163393Y-69023569D02*
X163401488Y-69023569D01*
X163401488Y-69023569D02*
X163544345Y-69071188D01*
X163877679Y-69023569D02*
X164115774Y-70023569D01*
X164115774Y-70023569D02*
X164306250Y-69309283D01*
X164306250Y-69309283D02*
X164496726Y-70023569D01*
X164496726Y-70023569D02*
X164734822Y-69023569D01*
X165068155Y-69118807D02*
X165115774Y-69071188D01*
X165115774Y-69071188D02*
X165211012Y-69023569D01*
X165211012Y-69023569D02*
X165449107Y-69023569D01*
X165449107Y-69023569D02*
X165544345Y-69071188D01*
X165544345Y-69071188D02*
X165591964Y-69118807D01*
X165591964Y-69118807D02*
X165639583Y-69214045D01*
X165639583Y-69214045D02*
X165639583Y-69309283D01*
X165639583Y-69309283D02*
X165591964Y-69452140D01*
X165591964Y-69452140D02*
X165020536Y-70023569D01*
X165020536Y-70023569D02*
X165639583Y-70023569D01*
X129849583Y-98097319D02*
X129516250Y-97621128D01*
X129278155Y-98097319D02*
X129278155Y-97097319D01*
X129278155Y-97097319D02*
X129659107Y-97097319D01*
X129659107Y-97097319D02*
X129754345Y-97144938D01*
X129754345Y-97144938D02*
X129801964Y-97192557D01*
X129801964Y-97192557D02*
X129849583Y-97287795D01*
X129849583Y-97287795D02*
X129849583Y-97430652D01*
X129849583Y-97430652D02*
X129801964Y-97525890D01*
X129801964Y-97525890D02*
X129754345Y-97573509D01*
X129754345Y-97573509D02*
X129659107Y-97621128D01*
X129659107Y-97621128D02*
X129278155Y-97621128D01*
X130706726Y-97097319D02*
X130516250Y-97097319D01*
X130516250Y-97097319D02*
X130421012Y-97144938D01*
X130421012Y-97144938D02*
X130373393Y-97192557D01*
X130373393Y-97192557D02*
X130278155Y-97335414D01*
X130278155Y-97335414D02*
X130230536Y-97525890D01*
X130230536Y-97525890D02*
X130230536Y-97906842D01*
X130230536Y-97906842D02*
X130278155Y-98002080D01*
X130278155Y-98002080D02*
X130325774Y-98049700D01*
X130325774Y-98049700D02*
X130421012Y-98097319D01*
X130421012Y-98097319D02*
X130611488Y-98097319D01*
X130611488Y-98097319D02*
X130706726Y-98049700D01*
X130706726Y-98049700D02*
X130754345Y-98002080D01*
X130754345Y-98002080D02*
X130801964Y-97906842D01*
X130801964Y-97906842D02*
X130801964Y-97668747D01*
X130801964Y-97668747D02*
X130754345Y-97573509D01*
X130754345Y-97573509D02*
X130706726Y-97525890D01*
X130706726Y-97525890D02*
X130611488Y-97478271D01*
X130611488Y-97478271D02*
X130421012Y-97478271D01*
X130421012Y-97478271D02*
X130325774Y-97525890D01*
X130325774Y-97525890D02*
X130278155Y-97573509D01*
X130278155Y-97573509D02*
X130230536Y-97668747D01*
X132502083Y-59467319D02*
X132168750Y-58991128D01*
X131930655Y-59467319D02*
X131930655Y-58467319D01*
X131930655Y-58467319D02*
X132311607Y-58467319D01*
X132311607Y-58467319D02*
X132406845Y-58514938D01*
X132406845Y-58514938D02*
X132454464Y-58562557D01*
X132454464Y-58562557D02*
X132502083Y-58657795D01*
X132502083Y-58657795D02*
X132502083Y-58800652D01*
X132502083Y-58800652D02*
X132454464Y-58895890D01*
X132454464Y-58895890D02*
X132406845Y-58943509D01*
X132406845Y-58943509D02*
X132311607Y-58991128D01*
X132311607Y-58991128D02*
X131930655Y-58991128D01*
X133359226Y-58800652D02*
X133359226Y-59467319D01*
X133121131Y-58419700D02*
X132883036Y-59133985D01*
X132883036Y-59133985D02*
X133502083Y-59133985D01*
X114133333Y-79036069D02*
X113800000Y-78559878D01*
X113561905Y-79036069D02*
X113561905Y-78036069D01*
X113561905Y-78036069D02*
X113942857Y-78036069D01*
X113942857Y-78036069D02*
X114038095Y-78083688D01*
X114038095Y-78083688D02*
X114085714Y-78131307D01*
X114085714Y-78131307D02*
X114133333Y-78226545D01*
X114133333Y-78226545D02*
X114133333Y-78369402D01*
X114133333Y-78369402D02*
X114085714Y-78464640D01*
X114085714Y-78464640D02*
X114038095Y-78512259D01*
X114038095Y-78512259D02*
X113942857Y-78559878D01*
X113942857Y-78559878D02*
X113561905Y-78559878D01*
X114514286Y-78131307D02*
X114561905Y-78083688D01*
X114561905Y-78083688D02*
X114657143Y-78036069D01*
X114657143Y-78036069D02*
X114895238Y-78036069D01*
X114895238Y-78036069D02*
X114990476Y-78083688D01*
X114990476Y-78083688D02*
X115038095Y-78131307D01*
X115038095Y-78131307D02*
X115085714Y-78226545D01*
X115085714Y-78226545D02*
X115085714Y-78321783D01*
X115085714Y-78321783D02*
X115038095Y-78464640D01*
X115038095Y-78464640D02*
X114466667Y-79036069D01*
X114466667Y-79036069D02*
X115085714Y-79036069D01*
X117729167Y-103313450D02*
X117872024Y-103361069D01*
X117872024Y-103361069D02*
X118110119Y-103361069D01*
X118110119Y-103361069D02*
X118205357Y-103313450D01*
X118205357Y-103313450D02*
X118252976Y-103265830D01*
X118252976Y-103265830D02*
X118300595Y-103170592D01*
X118300595Y-103170592D02*
X118300595Y-103075354D01*
X118300595Y-103075354D02*
X118252976Y-102980116D01*
X118252976Y-102980116D02*
X118205357Y-102932497D01*
X118205357Y-102932497D02*
X118110119Y-102884878D01*
X118110119Y-102884878D02*
X117919643Y-102837259D01*
X117919643Y-102837259D02*
X117824405Y-102789640D01*
X117824405Y-102789640D02*
X117776786Y-102742021D01*
X117776786Y-102742021D02*
X117729167Y-102646783D01*
X117729167Y-102646783D02*
X117729167Y-102551545D01*
X117729167Y-102551545D02*
X117776786Y-102456307D01*
X117776786Y-102456307D02*
X117824405Y-102408688D01*
X117824405Y-102408688D02*
X117919643Y-102361069D01*
X117919643Y-102361069D02*
X118157738Y-102361069D01*
X118157738Y-102361069D02*
X118300595Y-102408688D01*
X118633929Y-102361069D02*
X118872024Y-103361069D01*
X118872024Y-103361069D02*
X119062500Y-102646783D01*
X119062500Y-102646783D02*
X119252976Y-103361069D01*
X119252976Y-103361069D02*
X119491072Y-102361069D01*
X120395833Y-103361069D02*
X119824405Y-103361069D01*
X120110119Y-103361069D02*
X120110119Y-102361069D01*
X120110119Y-102361069D02*
X120014881Y-102503926D01*
X120014881Y-102503926D02*
X119919643Y-102599164D01*
X119919643Y-102599164D02*
X119824405Y-102646783D01*
X155797261Y-77712557D02*
X155702023Y-77664938D01*
X155702023Y-77664938D02*
X155606785Y-77569700D01*
X155606785Y-77569700D02*
X155463928Y-77426842D01*
X155463928Y-77426842D02*
X155368690Y-77379223D01*
X155368690Y-77379223D02*
X155273452Y-77379223D01*
X155321071Y-77617319D02*
X155225833Y-77569700D01*
X155225833Y-77569700D02*
X155130595Y-77474461D01*
X155130595Y-77474461D02*
X155082976Y-77283985D01*
X155082976Y-77283985D02*
X155082976Y-76950652D01*
X155082976Y-76950652D02*
X155130595Y-76760176D01*
X155130595Y-76760176D02*
X155225833Y-76664938D01*
X155225833Y-76664938D02*
X155321071Y-76617319D01*
X155321071Y-76617319D02*
X155511547Y-76617319D01*
X155511547Y-76617319D02*
X155606785Y-76664938D01*
X155606785Y-76664938D02*
X155702023Y-76760176D01*
X155702023Y-76760176D02*
X155749642Y-76950652D01*
X155749642Y-76950652D02*
X155749642Y-77283985D01*
X155749642Y-77283985D02*
X155702023Y-77474461D01*
X155702023Y-77474461D02*
X155606785Y-77569700D01*
X155606785Y-77569700D02*
X155511547Y-77617319D01*
X155511547Y-77617319D02*
X155321071Y-77617319D01*
X156702023Y-77617319D02*
X156130595Y-77617319D01*
X156416309Y-77617319D02*
X156416309Y-76617319D01*
X156416309Y-76617319D02*
X156321071Y-76760176D01*
X156321071Y-76760176D02*
X156225833Y-76855414D01*
X156225833Y-76855414D02*
X156130595Y-76903033D01*
X110069405Y-70313569D02*
X110069405Y-69313569D01*
X110069405Y-69313569D02*
X110307500Y-69313569D01*
X110307500Y-69313569D02*
X110450357Y-69361188D01*
X110450357Y-69361188D02*
X110545595Y-69456426D01*
X110545595Y-69456426D02*
X110593214Y-69551664D01*
X110593214Y-69551664D02*
X110640833Y-69742140D01*
X110640833Y-69742140D02*
X110640833Y-69884997D01*
X110640833Y-69884997D02*
X110593214Y-70075473D01*
X110593214Y-70075473D02*
X110545595Y-70170711D01*
X110545595Y-70170711D02*
X110450357Y-70265950D01*
X110450357Y-70265950D02*
X110307500Y-70313569D01*
X110307500Y-70313569D02*
X110069405Y-70313569D01*
X111593214Y-70313569D02*
X111021786Y-70313569D01*
X111307500Y-70313569D02*
X111307500Y-69313569D01*
X111307500Y-69313569D02*
X111212262Y-69456426D01*
X111212262Y-69456426D02*
X111117024Y-69551664D01*
X111117024Y-69551664D02*
X111021786Y-69599283D01*
D12*
%TO.C,G\u002A\u002A\u002A*%
G36*
X105896361Y-77596883D02*
G01*
X105914226Y-77670988D01*
X105973046Y-77821756D01*
X106091837Y-77933685D01*
X106258503Y-78010162D01*
X106416791Y-78064579D01*
X106247033Y-78110290D01*
X106072281Y-78184026D01*
X105962894Y-78299085D01*
X105916681Y-78417420D01*
X105879297Y-78522779D01*
X105842411Y-78546325D01*
X105809519Y-78487608D01*
X105796686Y-78432813D01*
X105744223Y-78290490D01*
X105639164Y-78185647D01*
X105466631Y-78103735D01*
X105456501Y-78100166D01*
X105344306Y-78061102D01*
X105623495Y-78061102D01*
X105729066Y-78165529D01*
X105800047Y-78235898D01*
X105838180Y-78274008D01*
X105839821Y-78275715D01*
X105870379Y-78254352D01*
X105940182Y-78194033D01*
X105965776Y-78170820D01*
X106086548Y-78060165D01*
X105971019Y-77944636D01*
X105855490Y-77829107D01*
X105739493Y-77945105D01*
X105623495Y-78061102D01*
X105344306Y-78061102D01*
X105292436Y-78043042D01*
X105438413Y-78011779D01*
X105618196Y-77937503D01*
X105743248Y-77809276D01*
X105796932Y-77670043D01*
X105828045Y-77562653D01*
X105862630Y-77538278D01*
X105896361Y-77596883D01*
G37*
G36*
X104589717Y-75985480D02*
G01*
X104649349Y-76150198D01*
X104717328Y-76294777D01*
X104779905Y-76390370D01*
X104785557Y-76396346D01*
X104872257Y-76457601D01*
X105011751Y-76529672D01*
X105177072Y-76598964D01*
X105214185Y-76612469D01*
X105542682Y-76728462D01*
X105250728Y-76815678D01*
X105034692Y-76888645D01*
X104877567Y-76968934D01*
X104762833Y-77073576D01*
X104673970Y-77219601D01*
X104594460Y-77424039D01*
X104561507Y-77526202D01*
X104520879Y-77640709D01*
X104487421Y-77707252D01*
X104471596Y-77713887D01*
X104450413Y-77657097D01*
X104414370Y-77545039D01*
X104373999Y-77411171D01*
X104297522Y-77204981D01*
X104196887Y-77054257D01*
X104054706Y-76942494D01*
X103853593Y-76853187D01*
X103750594Y-76819392D01*
X103451700Y-76727684D01*
X103707543Y-76727684D01*
X103885348Y-76776450D01*
X104035627Y-76838328D01*
X104179735Y-76928854D01*
X104203443Y-76948392D01*
X104289530Y-77033285D01*
X104353489Y-77126041D01*
X104410884Y-77253335D01*
X104458046Y-77384760D01*
X104479283Y-77419426D01*
X104506662Y-77395749D01*
X104547859Y-77304587D01*
X104566985Y-77254986D01*
X104627385Y-77120000D01*
X104693107Y-77009739D01*
X104726515Y-76970277D01*
X104808301Y-76915378D01*
X104935835Y-76849233D01*
X105036851Y-76804747D01*
X105268158Y-76710736D01*
X105047962Y-76641326D01*
X104847717Y-76554591D01*
X104704045Y-76430068D01*
X104598924Y-76249482D01*
X104559812Y-76146291D01*
X104517085Y-76023858D01*
X104491610Y-75972289D01*
X104474318Y-75983294D01*
X104456135Y-76048583D01*
X104455548Y-76051016D01*
X104383164Y-76269257D01*
X104276724Y-76432600D01*
X104120618Y-76557327D01*
X103899236Y-76659719D01*
X103857439Y-76674862D01*
X103707543Y-76727684D01*
X103451700Y-76727684D01*
X103434195Y-76722313D01*
X103776548Y-76611073D01*
X103984431Y-76534529D01*
X104132385Y-76450870D01*
X104238744Y-76341247D01*
X104321841Y-76186812D01*
X104399348Y-75970787D01*
X104494006Y-75674743D01*
X104589717Y-75985480D01*
G37*
G36*
X102771053Y-70425419D02*
G01*
X102896996Y-70835960D01*
X103006639Y-71175380D01*
X103104391Y-71453360D01*
X103194659Y-71679585D01*
X103281853Y-71863735D01*
X103370381Y-72015494D01*
X103464650Y-72144544D01*
X103569069Y-72260567D01*
X103636385Y-72326049D01*
X103806867Y-72463989D01*
X104021045Y-72597423D01*
X104285746Y-72729248D01*
X104607799Y-72862363D01*
X104994031Y-72999665D01*
X105451271Y-73144052D01*
X105811964Y-73249390D01*
X106164662Y-73349665D01*
X105791110Y-73461817D01*
X105413195Y-73575827D01*
X105104751Y-73670352D01*
X104855100Y-73749016D01*
X104653561Y-73815444D01*
X104489457Y-73873259D01*
X104352108Y-73926085D01*
X104230835Y-73977546D01*
X104119745Y-74028970D01*
X103904068Y-74146097D01*
X103714670Y-74282286D01*
X103545844Y-74446294D01*
X103391883Y-74646873D01*
X103247079Y-74892780D01*
X103105724Y-75192769D01*
X102962113Y-75555596D01*
X102810538Y-75990014D01*
X102778902Y-76085840D01*
X102534921Y-76830599D01*
X102396218Y-76356940D01*
X102265115Y-75926036D01*
X102138278Y-75541911D01*
X102019075Y-75213972D01*
X101910875Y-74951630D01*
X101842317Y-74809850D01*
X101664557Y-74548257D01*
X101425454Y-74305135D01*
X101147001Y-74102626D01*
X101129470Y-74092220D01*
X100967498Y-74010949D01*
X100737314Y-73915066D01*
X100451864Y-73809240D01*
X100124094Y-73698143D01*
X99766946Y-73586447D01*
X99557625Y-73525000D01*
X99368450Y-73469484D01*
X99209193Y-73420311D01*
X99096738Y-73382863D01*
X99048124Y-73362653D01*
X99072823Y-73346366D01*
X99319160Y-73346366D01*
X99386059Y-73380817D01*
X99523472Y-73428067D01*
X99557625Y-73438429D01*
X100031750Y-73583792D01*
X100432528Y-73716858D01*
X100768206Y-73842682D01*
X101047028Y-73966315D01*
X101277239Y-74092811D01*
X101467085Y-74227223D01*
X101624811Y-74374604D01*
X101758662Y-74540006D01*
X101876884Y-74728483D01*
X101975995Y-74920477D01*
X102047529Y-75084295D01*
X102133178Y-75303359D01*
X102223719Y-75552829D01*
X102309930Y-75807865D01*
X102337331Y-75893709D01*
X102405216Y-76108658D01*
X102464195Y-76292563D01*
X102509917Y-76432080D01*
X102538029Y-76513867D01*
X102544779Y-76529751D01*
X102559814Y-76492296D01*
X102596362Y-76388638D01*
X102649948Y-76231835D01*
X102716094Y-76034948D01*
X102769031Y-75875555D01*
X102922396Y-75433917D01*
X103071044Y-75064540D01*
X103224926Y-74757566D01*
X103393991Y-74503142D01*
X103588190Y-74291410D01*
X103817473Y-74112515D01*
X104091791Y-73956601D01*
X104421092Y-73813813D01*
X104815328Y-73674295D01*
X105074481Y-73591970D01*
X105291523Y-73526077D01*
X105482983Y-73470077D01*
X105633549Y-73428286D01*
X105727908Y-73405018D01*
X105749770Y-73401672D01*
X105816623Y-73381519D01*
X105829262Y-73368661D01*
X105798695Y-73346207D01*
X105700986Y-73305934D01*
X105549294Y-73252595D01*
X105356781Y-73190940D01*
X105237388Y-73154949D01*
X104783143Y-73014489D01*
X104400653Y-72878040D01*
X104080579Y-72736294D01*
X103813581Y-72579942D01*
X103590320Y-72399674D01*
X103401457Y-72186181D01*
X103237653Y-71930155D01*
X103089569Y-71622286D01*
X102947866Y-71253265D01*
X102803205Y-70813784D01*
X102765132Y-70690671D01*
X102697998Y-70479095D01*
X102638014Y-70304183D01*
X102589560Y-70177603D01*
X102557017Y-70111018D01*
X102545901Y-70106763D01*
X102527200Y-70166555D01*
X102489241Y-70291212D01*
X102436582Y-70465656D01*
X102373781Y-70674808D01*
X102331602Y-70815794D01*
X102194461Y-71247099D01*
X102059876Y-71605632D01*
X101920903Y-71901495D01*
X101770596Y-72144786D01*
X101602011Y-72345608D01*
X101408204Y-72514062D01*
X101182229Y-72660247D01*
X100997176Y-72756676D01*
X100833972Y-72827868D01*
X100612006Y-72914276D01*
X100352820Y-73008535D01*
X100077953Y-73103280D01*
X99808946Y-73191144D01*
X99567337Y-73264763D01*
X99374668Y-73316771D01*
X99328232Y-73327357D01*
X99319160Y-73346366D01*
X99072823Y-73346366D01*
X99076805Y-73343740D01*
X99174147Y-73305376D01*
X99328744Y-73251504D01*
X99529191Y-73186065D01*
X99764080Y-73112999D01*
X99817298Y-73096879D01*
X100223161Y-72971364D01*
X100571867Y-72853067D01*
X100870084Y-72734412D01*
X101124482Y-72607821D01*
X101341727Y-72465718D01*
X101528491Y-72300527D01*
X101691440Y-72104672D01*
X101837243Y-71870575D01*
X101972570Y-71590660D01*
X102104089Y-71257351D01*
X102238468Y-70863071D01*
X102382377Y-70400244D01*
X102480683Y-70070903D01*
X102571487Y-69763943D01*
X102771053Y-70425419D01*
G37*
G36*
X100686185Y-70977839D02*
G01*
X100701866Y-71045351D01*
X100762247Y-71202670D01*
X100882049Y-71317243D01*
X101070677Y-71398755D01*
X101246787Y-71452033D01*
X101066145Y-71505882D01*
X100909440Y-71568645D01*
X100790446Y-71646968D01*
X100728292Y-71727208D01*
X100723560Y-71750255D01*
X100706824Y-71818104D01*
X100669054Y-71918458D01*
X100667945Y-71921049D01*
X100614212Y-72046172D01*
X100583647Y-71885108D01*
X100510889Y-71701271D01*
X100378448Y-71568989D01*
X100209119Y-71502162D01*
X100106641Y-71472346D01*
X100096706Y-71455965D01*
X100342499Y-71455965D01*
X100447690Y-71511080D01*
X100536393Y-71583049D01*
X100581303Y-71655742D01*
X100602915Y-71708462D01*
X100631126Y-71708333D01*
X100684489Y-71649475D01*
X100712313Y-71614202D01*
X100791794Y-71530356D01*
X100861335Y-71485483D01*
X100874441Y-71483117D01*
X100883027Y-71457649D01*
X100836864Y-71389727D01*
X100777576Y-71325173D01*
X100685125Y-71236924D01*
X100631802Y-71204165D01*
X100601823Y-71219589D01*
X100592134Y-71239326D01*
X100537481Y-71313274D01*
X100452798Y-71383694D01*
X100342499Y-71455965D01*
X100096706Y-71455965D01*
X100086409Y-71438986D01*
X100147524Y-71405224D01*
X100243534Y-71382025D01*
X100395328Y-71314273D01*
X100516679Y-71185903D01*
X100586734Y-71019159D01*
X100587584Y-71015013D01*
X100618115Y-70921337D01*
X100652564Y-70909366D01*
X100686185Y-70977839D01*
G37*
G36*
X99308370Y-69504063D02*
G01*
X99381525Y-69737249D01*
X99458972Y-69905551D01*
X99557363Y-70026578D01*
X99693351Y-70117941D01*
X99883589Y-70197249D01*
X100001429Y-70236972D01*
X100287510Y-70329518D01*
X99968666Y-70426598D01*
X99724390Y-70521677D01*
X99546532Y-70645205D01*
X99419063Y-70812965D01*
X99325952Y-71040738D01*
X99317963Y-71067255D01*
X99276445Y-71196833D01*
X99241019Y-71286883D01*
X99221421Y-71316229D01*
X99199237Y-71279508D01*
X99166925Y-71184912D01*
X99142913Y-71097321D01*
X99082168Y-70887594D01*
X99011788Y-70734954D01*
X98915578Y-70623229D01*
X98777342Y-70536246D01*
X98580883Y-70457832D01*
X98463994Y-70419391D01*
X98179110Y-70329068D01*
X98452370Y-70329068D01*
X98640055Y-70390693D01*
X98818622Y-70459826D01*
X98949580Y-70542655D01*
X99049429Y-70657088D01*
X99134670Y-70821030D01*
X99204713Y-71003479D01*
X99228274Y-71056657D01*
X99247087Y-71037809D01*
X99264487Y-70982355D01*
X99306254Y-70868379D01*
X99359347Y-70752864D01*
X99459161Y-70604298D01*
X99594563Y-70493531D01*
X99789283Y-70401239D01*
X99792813Y-70399883D01*
X99905529Y-70352904D01*
X99947604Y-70322408D01*
X99928127Y-70300355D01*
X99912140Y-70294350D01*
X99689923Y-70209399D01*
X99532315Y-70117380D01*
X99421056Y-70001721D01*
X99337884Y-69845846D01*
X99297271Y-69736305D01*
X99254587Y-69626766D01*
X99221995Y-69595776D01*
X99192794Y-69644798D01*
X99162312Y-69765772D01*
X99082806Y-69949353D01*
X98936893Y-70109403D01*
X98741302Y-70229255D01*
X98669391Y-70256917D01*
X98452370Y-70329068D01*
X98179110Y-70329068D01*
X98160930Y-70323304D01*
X98485685Y-70228942D01*
X98711752Y-70148150D01*
X98877109Y-70046544D01*
X98998701Y-69906838D01*
X99093473Y-69711746D01*
X99146304Y-69555032D01*
X99237799Y-69253804D01*
X99308370Y-69504063D01*
G37*
G36*
X97869595Y-68918093D02*
G01*
X97934906Y-69109400D01*
X98023420Y-69234131D01*
X98147291Y-69308394D01*
X98170118Y-69316319D01*
X98301642Y-69361884D01*
X98354633Y-69394930D01*
X98330801Y-69425727D01*
X98231855Y-69464540D01*
X98196758Y-69476310D01*
X98076481Y-69522479D01*
X98001901Y-69577640D01*
X97946626Y-69667967D01*
X97905783Y-69764888D01*
X97817981Y-69986068D01*
X97763925Y-69792997D01*
X97690986Y-69623779D01*
X97575665Y-69516968D01*
X97400314Y-69456340D01*
X97397070Y-69455686D01*
X97292950Y-69423713D01*
X97271810Y-69388891D01*
X97296744Y-69375387D01*
X97561872Y-69375387D01*
X97568884Y-69417588D01*
X97634699Y-69458793D01*
X97641612Y-69461100D01*
X97726408Y-69519278D01*
X97770029Y-69581569D01*
X97798003Y-69634330D01*
X97828842Y-69643448D01*
X97882374Y-69603442D01*
X97957517Y-69529728D01*
X98042537Y-69435107D01*
X98067056Y-69377586D01*
X98048065Y-69350147D01*
X97985292Y-69318674D01*
X97969352Y-69314955D01*
X97934363Y-69281943D01*
X97889474Y-69210342D01*
X97833829Y-69106368D01*
X97757916Y-69231196D01*
X97690154Y-69315320D01*
X97625168Y-69355462D01*
X97618829Y-69356024D01*
X97561872Y-69375387D01*
X97296744Y-69375387D01*
X97333517Y-69355471D01*
X97400688Y-69339608D01*
X97578546Y-69278752D01*
X97700007Y-69166229D01*
X97779607Y-68989220D01*
X97838167Y-68792970D01*
X97869595Y-68918093D01*
G37*
G36*
X160665111Y-118078133D02*
G01*
X160682976Y-118152238D01*
X160741796Y-118303006D01*
X160860587Y-118414935D01*
X161027253Y-118491412D01*
X161185541Y-118545829D01*
X161015783Y-118591540D01*
X160841031Y-118665276D01*
X160731644Y-118780335D01*
X160685431Y-118898670D01*
X160648047Y-119004029D01*
X160611161Y-119027575D01*
X160578269Y-118968858D01*
X160565436Y-118914063D01*
X160512973Y-118771740D01*
X160407914Y-118666897D01*
X160235381Y-118584985D01*
X160225251Y-118581416D01*
X160113056Y-118542352D01*
X160392245Y-118542352D01*
X160497816Y-118646779D01*
X160568797Y-118717148D01*
X160606930Y-118755258D01*
X160608571Y-118756965D01*
X160639129Y-118735602D01*
X160708932Y-118675283D01*
X160734526Y-118652070D01*
X160855298Y-118541415D01*
X160739769Y-118425886D01*
X160624240Y-118310357D01*
X160508243Y-118426355D01*
X160392245Y-118542352D01*
X160113056Y-118542352D01*
X160061186Y-118524292D01*
X160207163Y-118493029D01*
X160386946Y-118418753D01*
X160511998Y-118290526D01*
X160565682Y-118151293D01*
X160596795Y-118043903D01*
X160631380Y-118019528D01*
X160665111Y-118078133D01*
G37*
G36*
X159358467Y-116466730D02*
G01*
X159418099Y-116631448D01*
X159486078Y-116776027D01*
X159548655Y-116871620D01*
X159554307Y-116877596D01*
X159641007Y-116938851D01*
X159780501Y-117010922D01*
X159945822Y-117080214D01*
X159982935Y-117093719D01*
X160311432Y-117209712D01*
X160019478Y-117296928D01*
X159803442Y-117369895D01*
X159646317Y-117450184D01*
X159531583Y-117554826D01*
X159442720Y-117700851D01*
X159363210Y-117905289D01*
X159330257Y-118007452D01*
X159289629Y-118121959D01*
X159256171Y-118188502D01*
X159240346Y-118195137D01*
X159219163Y-118138347D01*
X159183120Y-118026289D01*
X159142749Y-117892421D01*
X159066272Y-117686231D01*
X158965637Y-117535507D01*
X158823456Y-117423744D01*
X158622343Y-117334437D01*
X158519344Y-117300642D01*
X158220450Y-117208934D01*
X158476293Y-117208934D01*
X158654098Y-117257700D01*
X158804377Y-117319578D01*
X158948485Y-117410104D01*
X158972193Y-117429642D01*
X159058280Y-117514535D01*
X159122239Y-117607291D01*
X159179634Y-117734585D01*
X159226796Y-117866010D01*
X159248033Y-117900676D01*
X159275412Y-117876999D01*
X159316609Y-117785837D01*
X159335735Y-117736236D01*
X159396135Y-117601250D01*
X159461857Y-117490989D01*
X159495265Y-117451527D01*
X159577051Y-117396628D01*
X159704585Y-117330483D01*
X159805601Y-117285997D01*
X160036908Y-117191986D01*
X159816712Y-117122576D01*
X159616467Y-117035841D01*
X159472795Y-116911318D01*
X159367674Y-116730732D01*
X159328562Y-116627541D01*
X159285835Y-116505108D01*
X159260360Y-116453539D01*
X159243068Y-116464544D01*
X159224885Y-116529833D01*
X159224298Y-116532266D01*
X159151914Y-116750507D01*
X159045474Y-116913850D01*
X158889368Y-117038577D01*
X158667986Y-117140969D01*
X158626189Y-117156112D01*
X158476293Y-117208934D01*
X158220450Y-117208934D01*
X158202945Y-117203563D01*
X158545298Y-117092323D01*
X158753181Y-117015779D01*
X158901135Y-116932120D01*
X159007494Y-116822497D01*
X159090591Y-116668062D01*
X159168098Y-116452037D01*
X159262756Y-116155993D01*
X159358467Y-116466730D01*
G37*
G36*
X157539803Y-110906669D02*
G01*
X157665746Y-111317210D01*
X157775389Y-111656630D01*
X157873141Y-111934610D01*
X157963409Y-112160835D01*
X158050603Y-112344985D01*
X158139131Y-112496744D01*
X158233400Y-112625794D01*
X158337819Y-112741817D01*
X158405135Y-112807299D01*
X158575617Y-112945239D01*
X158789795Y-113078673D01*
X159054496Y-113210498D01*
X159376549Y-113343613D01*
X159762781Y-113480915D01*
X160220021Y-113625302D01*
X160580714Y-113730640D01*
X160933412Y-113830915D01*
X160559860Y-113943067D01*
X160181945Y-114057077D01*
X159873501Y-114151602D01*
X159623850Y-114230266D01*
X159422311Y-114296694D01*
X159258207Y-114354509D01*
X159120858Y-114407335D01*
X158999585Y-114458796D01*
X158888495Y-114510220D01*
X158672818Y-114627347D01*
X158483420Y-114763536D01*
X158314594Y-114927544D01*
X158160633Y-115128123D01*
X158015829Y-115374030D01*
X157874474Y-115674019D01*
X157730863Y-116036846D01*
X157579288Y-116471264D01*
X157547652Y-116567090D01*
X157303671Y-117311849D01*
X157164968Y-116838190D01*
X157033865Y-116407286D01*
X156907028Y-116023161D01*
X156787825Y-115695222D01*
X156679625Y-115432880D01*
X156611067Y-115291100D01*
X156433307Y-115029507D01*
X156194204Y-114786385D01*
X155915751Y-114583876D01*
X155898220Y-114573470D01*
X155736248Y-114492199D01*
X155506064Y-114396316D01*
X155220614Y-114290490D01*
X154892844Y-114179393D01*
X154535696Y-114067697D01*
X154326375Y-114006250D01*
X154137200Y-113950734D01*
X153977943Y-113901561D01*
X153865488Y-113864113D01*
X153816874Y-113843903D01*
X153841573Y-113827616D01*
X154087910Y-113827616D01*
X154154809Y-113862067D01*
X154292222Y-113909317D01*
X154326375Y-113919679D01*
X154800500Y-114065042D01*
X155201278Y-114198108D01*
X155536956Y-114323932D01*
X155815778Y-114447565D01*
X156045989Y-114574061D01*
X156235835Y-114708473D01*
X156393561Y-114855854D01*
X156527412Y-115021256D01*
X156645634Y-115209733D01*
X156744745Y-115401727D01*
X156816279Y-115565545D01*
X156901928Y-115784609D01*
X156992469Y-116034079D01*
X157078680Y-116289115D01*
X157106081Y-116374959D01*
X157173966Y-116589908D01*
X157232945Y-116773813D01*
X157278667Y-116913330D01*
X157306779Y-116995117D01*
X157313529Y-117011001D01*
X157328564Y-116973546D01*
X157365112Y-116869888D01*
X157418698Y-116713085D01*
X157484844Y-116516198D01*
X157537781Y-116356805D01*
X157691146Y-115915167D01*
X157839794Y-115545790D01*
X157993676Y-115238816D01*
X158162741Y-114984392D01*
X158356940Y-114772660D01*
X158586223Y-114593765D01*
X158860541Y-114437851D01*
X159189842Y-114295063D01*
X159584078Y-114155545D01*
X159843231Y-114073220D01*
X160060273Y-114007327D01*
X160251733Y-113951327D01*
X160402299Y-113909536D01*
X160496658Y-113886268D01*
X160518520Y-113882922D01*
X160585373Y-113862769D01*
X160598012Y-113849911D01*
X160567445Y-113827457D01*
X160469736Y-113787184D01*
X160318044Y-113733845D01*
X160125531Y-113672190D01*
X160006138Y-113636199D01*
X159551893Y-113495739D01*
X159169403Y-113359290D01*
X158849329Y-113217544D01*
X158582331Y-113061192D01*
X158359070Y-112880924D01*
X158170207Y-112667431D01*
X158006403Y-112411405D01*
X157858319Y-112103536D01*
X157716616Y-111734515D01*
X157571955Y-111295034D01*
X157533882Y-111171921D01*
X157466748Y-110960345D01*
X157406764Y-110785433D01*
X157358310Y-110658853D01*
X157325767Y-110592268D01*
X157314651Y-110588013D01*
X157295950Y-110647805D01*
X157257991Y-110772462D01*
X157205332Y-110946906D01*
X157142531Y-111156058D01*
X157100352Y-111297044D01*
X156963211Y-111728349D01*
X156828626Y-112086882D01*
X156689653Y-112382745D01*
X156539346Y-112626036D01*
X156370761Y-112826858D01*
X156176954Y-112995312D01*
X155950979Y-113141497D01*
X155765926Y-113237926D01*
X155602722Y-113309118D01*
X155380756Y-113395526D01*
X155121570Y-113489785D01*
X154846703Y-113584530D01*
X154577696Y-113672394D01*
X154336087Y-113746013D01*
X154143418Y-113798021D01*
X154096982Y-113808607D01*
X154087910Y-113827616D01*
X153841573Y-113827616D01*
X153845555Y-113824990D01*
X153942897Y-113786626D01*
X154097494Y-113732754D01*
X154297941Y-113667315D01*
X154532830Y-113594249D01*
X154586048Y-113578129D01*
X154991911Y-113452614D01*
X155340617Y-113334317D01*
X155638834Y-113215662D01*
X155893232Y-113089071D01*
X156110477Y-112946968D01*
X156297241Y-112781777D01*
X156460190Y-112585922D01*
X156605993Y-112351825D01*
X156741320Y-112071910D01*
X156872839Y-111738601D01*
X157007218Y-111344321D01*
X157151127Y-110881494D01*
X157249433Y-110552153D01*
X157340237Y-110245193D01*
X157539803Y-110906669D01*
G37*
G36*
X155454935Y-111459089D02*
G01*
X155470616Y-111526601D01*
X155530997Y-111683920D01*
X155650799Y-111798493D01*
X155839427Y-111880005D01*
X156015537Y-111933283D01*
X155834895Y-111987132D01*
X155678190Y-112049895D01*
X155559196Y-112128218D01*
X155497042Y-112208458D01*
X155492310Y-112231505D01*
X155475574Y-112299354D01*
X155437804Y-112399708D01*
X155436695Y-112402299D01*
X155382962Y-112527422D01*
X155352397Y-112366358D01*
X155279639Y-112182521D01*
X155147198Y-112050239D01*
X154977869Y-111983412D01*
X154875391Y-111953596D01*
X154865456Y-111937215D01*
X155111249Y-111937215D01*
X155216440Y-111992330D01*
X155305143Y-112064299D01*
X155350053Y-112136992D01*
X155371665Y-112189712D01*
X155399876Y-112189583D01*
X155453239Y-112130725D01*
X155481063Y-112095452D01*
X155560544Y-112011606D01*
X155630085Y-111966733D01*
X155643191Y-111964367D01*
X155651777Y-111938899D01*
X155605614Y-111870977D01*
X155546326Y-111806423D01*
X155453875Y-111718174D01*
X155400552Y-111685415D01*
X155370573Y-111700839D01*
X155360884Y-111720576D01*
X155306231Y-111794524D01*
X155221548Y-111864944D01*
X155111249Y-111937215D01*
X154865456Y-111937215D01*
X154855159Y-111920236D01*
X154916274Y-111886474D01*
X155012284Y-111863275D01*
X155164078Y-111795523D01*
X155285429Y-111667153D01*
X155355484Y-111500409D01*
X155356334Y-111496263D01*
X155386865Y-111402587D01*
X155421314Y-111390616D01*
X155454935Y-111459089D01*
G37*
G36*
X154077120Y-109985313D02*
G01*
X154150275Y-110218499D01*
X154227722Y-110386801D01*
X154326113Y-110507828D01*
X154462101Y-110599191D01*
X154652339Y-110678499D01*
X154770179Y-110718222D01*
X155056260Y-110810768D01*
X154737416Y-110907848D01*
X154493140Y-111002927D01*
X154315282Y-111126455D01*
X154187813Y-111294215D01*
X154094702Y-111521988D01*
X154086713Y-111548505D01*
X154045195Y-111678083D01*
X154009769Y-111768133D01*
X153990171Y-111797479D01*
X153967987Y-111760758D01*
X153935675Y-111666162D01*
X153911663Y-111578571D01*
X153850918Y-111368844D01*
X153780538Y-111216204D01*
X153684328Y-111104479D01*
X153546092Y-111017496D01*
X153349633Y-110939082D01*
X153232744Y-110900641D01*
X152947860Y-110810318D01*
X153221120Y-110810318D01*
X153408805Y-110871943D01*
X153587372Y-110941076D01*
X153718330Y-111023905D01*
X153818179Y-111138338D01*
X153903420Y-111302280D01*
X153973463Y-111484729D01*
X153997024Y-111537907D01*
X154015837Y-111519059D01*
X154033237Y-111463605D01*
X154075004Y-111349629D01*
X154128097Y-111234114D01*
X154227911Y-111085548D01*
X154363313Y-110974781D01*
X154558033Y-110882489D01*
X154561563Y-110881133D01*
X154674279Y-110834154D01*
X154716354Y-110803658D01*
X154696877Y-110781605D01*
X154680890Y-110775600D01*
X154458673Y-110690649D01*
X154301065Y-110598630D01*
X154189806Y-110482971D01*
X154106634Y-110327096D01*
X154066021Y-110217555D01*
X154023337Y-110108016D01*
X153990745Y-110077026D01*
X153961544Y-110126048D01*
X153931062Y-110247022D01*
X153851556Y-110430603D01*
X153705643Y-110590653D01*
X153510052Y-110710505D01*
X153438141Y-110738167D01*
X153221120Y-110810318D01*
X152947860Y-110810318D01*
X152929680Y-110804554D01*
X153254435Y-110710192D01*
X153480502Y-110629400D01*
X153645859Y-110527794D01*
X153767451Y-110388088D01*
X153862223Y-110192996D01*
X153915054Y-110036282D01*
X154006549Y-109735054D01*
X154077120Y-109985313D01*
G37*
G36*
X152638345Y-109399343D02*
G01*
X152703656Y-109590650D01*
X152792170Y-109715381D01*
X152916041Y-109789644D01*
X152938868Y-109797569D01*
X153070392Y-109843134D01*
X153123383Y-109876180D01*
X153099551Y-109906977D01*
X153000605Y-109945790D01*
X152965508Y-109957560D01*
X152845231Y-110003729D01*
X152770651Y-110058890D01*
X152715376Y-110149217D01*
X152674533Y-110246138D01*
X152586731Y-110467318D01*
X152532675Y-110274247D01*
X152459736Y-110105029D01*
X152344415Y-109998218D01*
X152169064Y-109937590D01*
X152165820Y-109936936D01*
X152061700Y-109904963D01*
X152040560Y-109870141D01*
X152065494Y-109856637D01*
X152330622Y-109856637D01*
X152337634Y-109898838D01*
X152403449Y-109940043D01*
X152410362Y-109942350D01*
X152495158Y-110000528D01*
X152538779Y-110062819D01*
X152566753Y-110115580D01*
X152597592Y-110124698D01*
X152651124Y-110084692D01*
X152726267Y-110010978D01*
X152811287Y-109916357D01*
X152835806Y-109858836D01*
X152816815Y-109831397D01*
X152754042Y-109799924D01*
X152738102Y-109796205D01*
X152703113Y-109763193D01*
X152658224Y-109691592D01*
X152602579Y-109587618D01*
X152526666Y-109712446D01*
X152458904Y-109796570D01*
X152393918Y-109836712D01*
X152387579Y-109837274D01*
X152330622Y-109856637D01*
X152065494Y-109856637D01*
X152102267Y-109836721D01*
X152169438Y-109820858D01*
X152347296Y-109760002D01*
X152468757Y-109647479D01*
X152548357Y-109470470D01*
X152606917Y-109274220D01*
X152638345Y-109399343D01*
G37*
G36*
X136639642Y-86845251D02*
G01*
X136701354Y-87267492D01*
X136779421Y-87663281D01*
X136871678Y-88024282D01*
X136975962Y-88342161D01*
X137090110Y-88608584D01*
X137104859Y-88637651D01*
X137242675Y-88853945D01*
X137415256Y-89046411D01*
X137607580Y-89199278D01*
X137681575Y-89243094D01*
X137869412Y-89328985D01*
X138105630Y-89413846D01*
X138377367Y-89494493D01*
X138671764Y-89567740D01*
X138975961Y-89630404D01*
X139277095Y-89679298D01*
X139562308Y-89711239D01*
X139576486Y-89712378D01*
X139745905Y-89727679D01*
X139855033Y-89742637D01*
X139904850Y-89757993D01*
X139896332Y-89774490D01*
X139830460Y-89792871D01*
X139709920Y-89813620D01*
X139256922Y-89889215D01*
X138839291Y-89973707D01*
X138461039Y-90065860D01*
X138126175Y-90164438D01*
X137838712Y-90268207D01*
X137602659Y-90375932D01*
X137422028Y-90486378D01*
X137358836Y-90537591D01*
X137242748Y-90674381D01*
X137131064Y-90869829D01*
X137024591Y-91121420D01*
X136924141Y-91426638D01*
X136830522Y-91782969D01*
X136744546Y-92187897D01*
X136667021Y-92638908D01*
X136653550Y-92728001D01*
X136631263Y-92867402D01*
X136610559Y-92976879D01*
X136593524Y-93046750D01*
X136582243Y-93067333D01*
X136580976Y-93065034D01*
X136571204Y-93016507D01*
X136557468Y-92922225D01*
X136541860Y-92797412D01*
X136531154Y-92702041D01*
X136482954Y-92350375D01*
X136415222Y-91999686D01*
X136331434Y-91662988D01*
X136235068Y-91353292D01*
X136129604Y-91083613D01*
X136060453Y-90940868D01*
X135923384Y-90724488D01*
X135755973Y-90537694D01*
X135552001Y-90376234D01*
X135305248Y-90235853D01*
X135009498Y-90112297D01*
X134707066Y-90015055D01*
X134488371Y-89958375D01*
X134237445Y-89903324D01*
X133978825Y-89854636D01*
X133737047Y-89817048D01*
X133593478Y-89800119D01*
X133483228Y-89786816D01*
X133399361Y-89771738D01*
X133358282Y-89757909D01*
X133357032Y-89756520D01*
X133379607Y-89745755D01*
X133451324Y-89734038D01*
X133560100Y-89722993D01*
X133656446Y-89716260D01*
X133898141Y-89694075D01*
X134167986Y-89655904D01*
X134441605Y-89606029D01*
X134694621Y-89548728D01*
X134840206Y-89508397D01*
X135182549Y-89384595D01*
X135478831Y-89234017D01*
X135732328Y-89052503D01*
X135946319Y-88835890D01*
X136124081Y-88580015D01*
X136268891Y-88280716D01*
X136384028Y-87933831D01*
X136472768Y-87535197D01*
X136494277Y-87407777D01*
X136520893Y-87230645D01*
X136545946Y-87048185D01*
X136566446Y-86883106D01*
X136578486Y-86768652D01*
X136600373Y-86523538D01*
X136639642Y-86845251D01*
G37*
G36*
X143101435Y-87232194D02*
G01*
X143161547Y-87493591D01*
X143230121Y-87701147D01*
X143311633Y-87862171D01*
X143410556Y-87983970D01*
X143531365Y-88073852D01*
X143650606Y-88129130D01*
X143771386Y-88167459D01*
X143923945Y-88206239D01*
X144087970Y-88241298D01*
X144243149Y-88268462D01*
X144369167Y-88283556D01*
X144410671Y-88285299D01*
X144476909Y-88289400D01*
X144483221Y-88301499D01*
X144430396Y-88321292D01*
X144319220Y-88348474D01*
X144167070Y-88379554D01*
X143878256Y-88444597D01*
X143647603Y-88516938D01*
X143476085Y-88596218D01*
X143374953Y-88671322D01*
X143312034Y-88751528D01*
X143255760Y-88863164D01*
X143203536Y-89013688D01*
X143152768Y-89210562D01*
X143101606Y-89457339D01*
X143038729Y-89786797D01*
X142986105Y-89472658D01*
X142931366Y-89199776D01*
X142865019Y-88980401D01*
X142782043Y-88807117D01*
X142677414Y-88672508D01*
X142546110Y-88569157D01*
X142383110Y-88489648D01*
X142300707Y-88460516D01*
X142169161Y-88420613D01*
X142043259Y-88386729D01*
X141947141Y-88365288D01*
X141935714Y-88363375D01*
X141795717Y-88340708D01*
X141714838Y-88323474D01*
X141691434Y-88309155D01*
X141723861Y-88295232D01*
X141810477Y-88279187D01*
X141874435Y-88269458D01*
X142154663Y-88216488D01*
X142382084Y-88146652D01*
X142563653Y-88056628D01*
X142706325Y-87943098D01*
X142801236Y-87827085D01*
X142869214Y-87696780D01*
X142930711Y-87524409D01*
X142980042Y-87329176D01*
X143011521Y-87130289D01*
X143013584Y-87109719D01*
X143034151Y-86891210D01*
X143101435Y-87232194D01*
G37*
G36*
X138326786Y-79503432D02*
G01*
X138335345Y-79536992D01*
X138349217Y-79618772D01*
X138366419Y-79736150D01*
X138383372Y-79863852D01*
X138452230Y-80320710D01*
X138536945Y-80734128D01*
X138636473Y-81100853D01*
X138749772Y-81417633D01*
X138875800Y-81681216D01*
X139013514Y-81888349D01*
X139043835Y-81924386D01*
X139222000Y-82086957D01*
X139455193Y-82231840D01*
X139744648Y-82359634D01*
X140091600Y-82470938D01*
X140255174Y-82513013D01*
X140430343Y-82551696D01*
X140631780Y-82590486D01*
X140845119Y-82627176D01*
X141055994Y-82659559D01*
X141250040Y-82685429D01*
X141412890Y-82702579D01*
X141529743Y-82708801D01*
X141628637Y-82713249D01*
X141669582Y-82725099D01*
X141655202Y-82742481D01*
X141588121Y-82763526D01*
X141470962Y-82786366D01*
X141407185Y-82796083D01*
X141089977Y-82847139D01*
X140763971Y-82910425D01*
X140441115Y-82982916D01*
X140133354Y-83061589D01*
X139852637Y-83143420D01*
X139610910Y-83225385D01*
X139445819Y-83292540D01*
X139247451Y-83396088D01*
X139096153Y-83509976D01*
X138977780Y-83647331D01*
X138879912Y-83817720D01*
X138767343Y-84084655D01*
X138661699Y-84405107D01*
X138564994Y-84771508D01*
X138479244Y-85176293D01*
X138412118Y-85573719D01*
X138381506Y-85775471D01*
X138358079Y-85920286D01*
X138340409Y-86011900D01*
X138327071Y-86054047D01*
X138316640Y-86050461D01*
X138307690Y-86004878D01*
X138298795Y-85921032D01*
X138295151Y-85880112D01*
X138251781Y-85505303D01*
X138188736Y-85137884D01*
X138108581Y-84786448D01*
X138013878Y-84459586D01*
X137907193Y-84165890D01*
X137791088Y-83913954D01*
X137668129Y-83712368D01*
X137635438Y-83669370D01*
X137453541Y-83482226D01*
X137223584Y-83316001D01*
X136943597Y-83169891D01*
X136611608Y-83043090D01*
X136225646Y-82934794D01*
X135783739Y-82844197D01*
X135507883Y-82800429D01*
X135350029Y-82777360D01*
X135213290Y-82756770D01*
X135109413Y-82740474D01*
X135050148Y-82730286D01*
X135041912Y-82728439D01*
X135057401Y-82722956D01*
X135123001Y-82715265D01*
X135227635Y-82706475D01*
X135332986Y-82699334D01*
X135691876Y-82664572D01*
X136050515Y-82606217D01*
X136396579Y-82527459D01*
X136717742Y-82431484D01*
X137001679Y-82321481D01*
X137217258Y-82211914D01*
X137451006Y-82050019D01*
X137651006Y-81857680D01*
X137820544Y-81629440D01*
X137962903Y-81359842D01*
X138081371Y-81043431D01*
X138179231Y-80674749D01*
X138199460Y-80580576D01*
X138233706Y-80389207D01*
X138264232Y-80172740D01*
X138286811Y-79963449D01*
X138294968Y-79851417D01*
X138303469Y-79712529D01*
X138312299Y-79600635D01*
X138320415Y-79527133D01*
X138326774Y-79503420D01*
X138326786Y-79503432D01*
G37*
G36*
X131447234Y-71831982D02*
G01*
X131521208Y-72516952D01*
X131614211Y-73165842D01*
X131725418Y-73775793D01*
X131854007Y-74343946D01*
X131999151Y-74867440D01*
X132160029Y-75343417D01*
X132335814Y-75769017D01*
X132525684Y-76141380D01*
X132728814Y-76457647D01*
X132811326Y-76565015D01*
X133023119Y-76787429D01*
X133285105Y-76993481D01*
X133599444Y-77184374D01*
X133968293Y-77361314D01*
X134393811Y-77525504D01*
X134726246Y-77633405D01*
X135217662Y-77767719D01*
X135759190Y-77888766D01*
X136340750Y-77994783D01*
X136952264Y-78084006D01*
X137583653Y-78154671D01*
X137830044Y-78176567D01*
X137984997Y-78189872D01*
X138116442Y-78202167D01*
X138213137Y-78212323D01*
X138263840Y-78219212D01*
X138268616Y-78220619D01*
X138246757Y-78228901D01*
X138180278Y-78241049D01*
X138115420Y-78250231D01*
X137912952Y-78278417D01*
X137665802Y-78316287D01*
X137389330Y-78361262D01*
X137098891Y-78410763D01*
X136809845Y-78462211D01*
X136537550Y-78513029D01*
X136456083Y-78528811D01*
X135896239Y-78645543D01*
X135371666Y-78769358D01*
X134885644Y-78899125D01*
X134441456Y-79033713D01*
X134042385Y-79171993D01*
X133691712Y-79312833D01*
X133392721Y-79455103D01*
X133148694Y-79597672D01*
X132976313Y-79727460D01*
X132799349Y-79915000D01*
X132629817Y-80160641D01*
X132467531Y-80464833D01*
X132312304Y-80828028D01*
X132163949Y-81250679D01*
X132022281Y-81733237D01*
X131887111Y-82276152D01*
X131843836Y-82468930D01*
X131786290Y-82743695D01*
X131726298Y-83051395D01*
X131666376Y-83377411D01*
X131609041Y-83707125D01*
X131556813Y-84025918D01*
X131512207Y-84319171D01*
X131477742Y-84572265D01*
X131468746Y-84646879D01*
X131448367Y-84797930D01*
X131428086Y-84904480D01*
X131409528Y-84963266D01*
X131394322Y-84971026D01*
X131384094Y-84924495D01*
X131380466Y-84823979D01*
X131376583Y-84745233D01*
X131365788Y-84618422D01*
X131349360Y-84456213D01*
X131328581Y-84271269D01*
X131305333Y-84080976D01*
X131207756Y-83413589D01*
X131090285Y-82786690D01*
X130953815Y-82203265D01*
X130799242Y-81666303D01*
X130627464Y-81178792D01*
X130439375Y-80743720D01*
X130235872Y-80364074D01*
X130149530Y-80227157D01*
X129913229Y-79925253D01*
X129621630Y-79649483D01*
X129274666Y-79399792D01*
X128872273Y-79176127D01*
X128808524Y-79145477D01*
X128446939Y-78991365D01*
X128033819Y-78844562D01*
X127578704Y-78707382D01*
X127091134Y-78582135D01*
X126580650Y-78471136D01*
X126056791Y-78376694D01*
X125529097Y-78301124D01*
X125155145Y-78259984D01*
X125010827Y-78244324D01*
X124893185Y-78227953D01*
X124813100Y-78212658D01*
X124781451Y-78200227D01*
X124781621Y-78198604D01*
X124817280Y-78187127D01*
X124898266Y-78178577D01*
X125008644Y-78174476D01*
X125035642Y-78174322D01*
X125154549Y-78171146D01*
X125315683Y-78162433D01*
X125500367Y-78149403D01*
X125689924Y-78133276D01*
X125746198Y-78127893D01*
X126394831Y-78048526D01*
X127005986Y-77942326D01*
X127577119Y-77810263D01*
X128105688Y-77653311D01*
X128589150Y-77472441D01*
X129024962Y-77268623D01*
X129410581Y-77042831D01*
X129743466Y-76796035D01*
X130021072Y-76529207D01*
X130066853Y-76476920D01*
X130312353Y-76154468D01*
X130531739Y-75794052D01*
X130725732Y-75393215D01*
X130895055Y-74949503D01*
X131040430Y-74460457D01*
X131162579Y-73923621D01*
X131262224Y-73336540D01*
X131340088Y-72696756D01*
X131396891Y-72001813D01*
X131400827Y-71939219D01*
X131423425Y-71571548D01*
X131447234Y-71831982D01*
G37*
G36*
X144820531Y-79518797D02*
G01*
X144830783Y-79585365D01*
X144831130Y-79601897D01*
X144839647Y-79708716D01*
X144862663Y-79856392D01*
X144896372Y-80027302D01*
X144936971Y-80203822D01*
X144980655Y-80368329D01*
X145023618Y-80503199D01*
X145028629Y-80516778D01*
X145116226Y-80719446D01*
X145213958Y-80875025D01*
X145334231Y-80995601D01*
X145489448Y-81093262D01*
X145692012Y-81180096D01*
X145719704Y-81190223D01*
X145851386Y-81230946D01*
X146019580Y-81273225D01*
X146206779Y-81313654D01*
X146395477Y-81348828D01*
X146568167Y-81375343D01*
X146707343Y-81389792D01*
X146754239Y-81391451D01*
X146827026Y-81394392D01*
X146844604Y-81403522D01*
X146805683Y-81419301D01*
X146708972Y-81442189D01*
X146553183Y-81472645D01*
X146498364Y-81482670D01*
X146127677Y-81557898D01*
X145816753Y-81638688D01*
X145565901Y-81724931D01*
X145375427Y-81816516D01*
X145245638Y-81913334D01*
X145223520Y-81937377D01*
X145166999Y-82021149D01*
X145108382Y-82133491D01*
X145075721Y-82210575D01*
X145030823Y-82347224D01*
X144981894Y-82524552D01*
X144933630Y-82722586D01*
X144890730Y-82921351D01*
X144857891Y-83100874D01*
X144844800Y-83192456D01*
X144827453Y-83305752D01*
X144808311Y-83385468D01*
X144790437Y-83424995D01*
X144776894Y-83417727D01*
X144770745Y-83357053D01*
X144770685Y-83352368D01*
X144764892Y-83272801D01*
X144750362Y-83154492D01*
X144729847Y-83018894D01*
X144722099Y-82973250D01*
X144650950Y-82644671D01*
X144561003Y-82360919D01*
X144454013Y-82125966D01*
X144331736Y-81943778D01*
X144218052Y-81834089D01*
X144024198Y-81717272D01*
X143774770Y-81615068D01*
X143474035Y-81528889D01*
X143126259Y-81460145D01*
X143054049Y-81448999D01*
X142793615Y-81410498D01*
X143100008Y-81373266D01*
X143453163Y-81317583D01*
X143752287Y-81241672D01*
X144001990Y-81143082D01*
X144206883Y-81019363D01*
X144371577Y-80868067D01*
X144500684Y-80686742D01*
X144542630Y-80606847D01*
X144616881Y-80422903D01*
X144682130Y-80206490D01*
X144732767Y-79981211D01*
X144763181Y-79770670D01*
X144769449Y-79652669D01*
X144774937Y-79562797D01*
X144788604Y-79504412D01*
X144800491Y-79491813D01*
X144820531Y-79518797D01*
G37*
G36*
X143077065Y-74130204D02*
G01*
X143135629Y-74427583D01*
X143211235Y-74669217D01*
X143305698Y-74858717D01*
X143420829Y-74999693D01*
X143558442Y-75095755D01*
X143563023Y-75098023D01*
X143675906Y-75142552D01*
X143828853Y-75188746D01*
X144001091Y-75231743D01*
X144171846Y-75266682D01*
X144320345Y-75288702D01*
X144399626Y-75293823D01*
X144471581Y-75298061D01*
X144482806Y-75309969D01*
X144433365Y-75329522D01*
X144323321Y-75356694D01*
X144169161Y-75388292D01*
X143921553Y-75439876D01*
X143720915Y-75493560D01*
X143560761Y-75556502D01*
X143434603Y-75635862D01*
X143335955Y-75738798D01*
X143258330Y-75872470D01*
X143195242Y-76044037D01*
X143140202Y-76260658D01*
X143086726Y-76529493D01*
X143074519Y-76596397D01*
X143035778Y-76810872D01*
X143013437Y-76627036D01*
X142966282Y-76344069D01*
X142898840Y-76093474D01*
X142813989Y-75882754D01*
X142714607Y-75719417D01*
X142631909Y-75632229D01*
X142521654Y-75562866D01*
X142364847Y-75493635D01*
X142176004Y-75429711D01*
X141969646Y-75376265D01*
X141843796Y-75351437D01*
X141629320Y-75314382D01*
X141892634Y-75275613D01*
X142185878Y-75217522D01*
X142426202Y-75134395D01*
X142618681Y-75020995D01*
X142768386Y-74872082D01*
X142880391Y-74682418D01*
X142959770Y-74446765D01*
X143011595Y-74159885D01*
X143017023Y-74114611D01*
X143041372Y-73900136D01*
X143077065Y-74130204D01*
G37*
G36*
X136655258Y-69380836D02*
G01*
X136721461Y-69810800D01*
X136804881Y-70207051D01*
X136903672Y-70562997D01*
X137015989Y-70872045D01*
X137139985Y-71127600D01*
X137148192Y-71141836D01*
X137271907Y-71322233D01*
X137421438Y-71478430D01*
X137602916Y-71613857D01*
X137822475Y-71731944D01*
X138086248Y-71836122D01*
X138400368Y-71929821D01*
X138675035Y-71995800D01*
X138851112Y-72031407D01*
X139055407Y-72067456D01*
X139271870Y-72101618D01*
X139484452Y-72131561D01*
X139677102Y-72154956D01*
X139833772Y-72169473D01*
X139893350Y-72172666D01*
X139934944Y-72177122D01*
X139923769Y-72186894D01*
X139856887Y-72203136D01*
X139775641Y-72218920D01*
X139378276Y-72294047D01*
X139037716Y-72361637D01*
X138750066Y-72422523D01*
X138511426Y-72477536D01*
X138317899Y-72527511D01*
X138274798Y-72539693D01*
X138059647Y-72608675D01*
X137848867Y-72688787D01*
X137655908Y-72774033D01*
X137494222Y-72858417D01*
X137377258Y-72935944D01*
X137367032Y-72944360D01*
X137265597Y-73059213D01*
X137163907Y-73229336D01*
X137064427Y-73448783D01*
X136969625Y-73711606D01*
X136881968Y-74011858D01*
X136822657Y-74256863D01*
X136786326Y-74428921D01*
X136746607Y-74631562D01*
X136706593Y-74847528D01*
X136669378Y-75059558D01*
X136638056Y-75250392D01*
X136615720Y-75402771D01*
X136611992Y-75432102D01*
X136599941Y-75485518D01*
X136585084Y-75482477D01*
X136583220Y-75478061D01*
X136572602Y-75429683D01*
X136557852Y-75335417D01*
X136541179Y-75210328D01*
X136529309Y-75110390D01*
X136468797Y-74685158D01*
X136387453Y-74289297D01*
X136287164Y-73927884D01*
X136169818Y-73605995D01*
X136037301Y-73328707D01*
X135891503Y-73101095D01*
X135734310Y-72928236D01*
X135710222Y-72907637D01*
X135519175Y-72776705D01*
X135274786Y-72652247D01*
X134984861Y-72536735D01*
X134657206Y-72432635D01*
X134299625Y-72342417D01*
X133919924Y-72268550D01*
X133525910Y-72213503D01*
X133509899Y-72211720D01*
X133295424Y-72188081D01*
X133767694Y-72135206D01*
X134177377Y-72080298D01*
X134536491Y-72011900D01*
X134854787Y-71927312D01*
X135142018Y-71823836D01*
X135407935Y-71698770D01*
X135473969Y-71662840D01*
X135700802Y-71510664D01*
X135899228Y-71322179D01*
X136070621Y-71094295D01*
X136216353Y-70823923D01*
X136337799Y-70507973D01*
X136436331Y-70143356D01*
X136513323Y-69726982D01*
X136570148Y-69255761D01*
X136576885Y-69181680D01*
X136598324Y-68936566D01*
X136655258Y-69380836D01*
G37*
%TO.C,G*%
G36*
X136452695Y-65918556D02*
G01*
X136497757Y-66045216D01*
X136555186Y-66242310D01*
X136679735Y-66697213D01*
X136779961Y-66580273D01*
X136880188Y-66463334D01*
X136857110Y-66600917D01*
X136845570Y-66686877D01*
X136860791Y-66726258D01*
X136921026Y-66728203D01*
X137044528Y-66701854D01*
X137054166Y-66699615D01*
X137169055Y-66680964D01*
X137206513Y-66694556D01*
X137166260Y-66737760D01*
X137064750Y-66799040D01*
X136971015Y-66855872D01*
X136919812Y-66899274D01*
X136916583Y-66906819D01*
X136950595Y-66942119D01*
X137034405Y-66993155D01*
X137054166Y-67003279D01*
X137191750Y-67071752D01*
X137033000Y-67074459D01*
X136928977Y-67078704D01*
X136885323Y-67100489D01*
X136892208Y-67160423D01*
X136937750Y-67274196D01*
X136985421Y-67395245D01*
X136992126Y-67443589D01*
X136952431Y-67423374D01*
X136860904Y-67338746D01*
X136857486Y-67335434D01*
X136713722Y-67196093D01*
X136684432Y-67369463D01*
X136652561Y-67493384D01*
X136618234Y-67537450D01*
X136590393Y-67501323D01*
X136577977Y-67384664D01*
X136577916Y-67373500D01*
X136569732Y-67254021D01*
X136537886Y-67210463D01*
X136471438Y-67235045D01*
X136427257Y-67266320D01*
X136339394Y-67321778D01*
X136306553Y-67312912D01*
X136328065Y-67239170D01*
X136347117Y-67200233D01*
X136386726Y-67107480D01*
X136395351Y-67051170D01*
X136393307Y-67047779D01*
X136342504Y-67030416D01*
X136235151Y-67008932D01*
X136146768Y-66995349D01*
X136021892Y-66976776D01*
X135972525Y-66962745D01*
X135990128Y-66947586D01*
X136048750Y-66930282D01*
X136150559Y-66899523D01*
X136213120Y-66874842D01*
X136187454Y-66856953D01*
X136096091Y-66820731D01*
X135954738Y-66771127D01*
X135779100Y-66713089D01*
X135584884Y-66651569D01*
X135387795Y-66591515D01*
X135203539Y-66537878D01*
X135047822Y-66495607D01*
X134936351Y-66469652D01*
X134916333Y-66466154D01*
X134835395Y-66463038D01*
X134802267Y-66503395D01*
X134794151Y-66582833D01*
X134788761Y-66664731D01*
X134780528Y-66666481D01*
X134768912Y-66611500D01*
X134707200Y-66491511D01*
X134580054Y-66420133D01*
X134545916Y-66412064D01*
X134469163Y-66408959D01*
X134325903Y-66413510D01*
X134131663Y-66424393D01*
X133901968Y-66440283D01*
X133652344Y-66459858D01*
X133398316Y-66481793D01*
X133155411Y-66504764D01*
X132939154Y-66527446D01*
X132765070Y-66548517D01*
X132648686Y-66566651D01*
X132609166Y-66577230D01*
X132536349Y-66636342D01*
X132513916Y-66687337D01*
X132499334Y-66725684D01*
X132457863Y-66702347D01*
X132420086Y-66679516D01*
X132371440Y-66672425D01*
X132302551Y-66684871D01*
X132204040Y-66720652D01*
X132066533Y-66783564D01*
X131880654Y-66877404D01*
X131637026Y-67005968D01*
X131418889Y-67123086D01*
X131118756Y-67287621D01*
X130893056Y-67417703D01*
X130739532Y-67514749D01*
X130655924Y-67580174D01*
X130638387Y-67612709D01*
X130638281Y-67663694D01*
X130624029Y-67670482D01*
X130559600Y-67691544D01*
X130526972Y-67709589D01*
X130488271Y-67752068D01*
X130517711Y-67810072D01*
X130521572Y-67814774D01*
X130551714Y-67865195D01*
X130512194Y-67880837D01*
X130482295Y-67881500D01*
X130417234Y-67893830D01*
X130400063Y-67947530D01*
X130406280Y-68008500D01*
X130410149Y-68108130D01*
X130385738Y-68129054D01*
X130339967Y-68069569D01*
X130320286Y-68029667D01*
X130273898Y-67951997D01*
X130237959Y-67923834D01*
X130208220Y-67958135D01*
X130143430Y-68052391D01*
X130051549Y-68193628D01*
X129940538Y-68368872D01*
X129818355Y-68565149D01*
X129692961Y-68769485D01*
X129572316Y-68968908D01*
X129464380Y-69150442D01*
X129377114Y-69301116D01*
X129318476Y-69407954D01*
X129296428Y-69457983D01*
X129296414Y-69458417D01*
X129332002Y-69484497D01*
X129378751Y-69490167D01*
X129464379Y-69509050D01*
X129483424Y-69550487D01*
X129429957Y-69591656D01*
X129406933Y-69598649D01*
X129306200Y-69664491D01*
X129259237Y-69748057D01*
X129218782Y-69845139D01*
X129188499Y-69860839D01*
X129160466Y-69796486D01*
X129152361Y-69765978D01*
X129087756Y-69666995D01*
X129019634Y-69634103D01*
X128947438Y-69600645D01*
X128952731Y-69559375D01*
X128942065Y-69523085D01*
X128866364Y-69462167D01*
X128721422Y-69373793D01*
X128503032Y-69255137D01*
X128490157Y-69248383D01*
X128265523Y-69134521D01*
X128111761Y-69065364D01*
X128029161Y-69041031D01*
X128015126Y-69055704D01*
X128020147Y-69092477D01*
X127980787Y-69079488D01*
X127912214Y-69033494D01*
X127782337Y-68941014D01*
X127725673Y-69141507D01*
X127669009Y-69342000D01*
X127654891Y-69138827D01*
X127642358Y-69017609D01*
X127620439Y-68962800D01*
X127579197Y-68956144D01*
X127558511Y-68961763D01*
X127489456Y-68965029D01*
X127483561Y-68921668D01*
X127527050Y-68863634D01*
X127534653Y-68837960D01*
X127487792Y-68822193D01*
X127375703Y-68814470D01*
X127233215Y-68812834D01*
X127060326Y-68806939D01*
X126935965Y-68791988D01*
X126867039Y-68772083D01*
X126860457Y-68751325D01*
X126923126Y-68733814D01*
X127061953Y-68723651D01*
X127082168Y-68723158D01*
X127205493Y-68716541D01*
X127333300Y-68703419D01*
X127447012Y-68686861D01*
X127528053Y-68669940D01*
X127557847Y-68655727D01*
X127533695Y-68648509D01*
X127477581Y-68609602D01*
X127474948Y-68604893D01*
X127933498Y-68604893D01*
X128054124Y-68578913D01*
X128174750Y-68552933D01*
X128070227Y-68644261D01*
X128002221Y-68708523D01*
X127994878Y-68744832D01*
X128044125Y-68779808D01*
X128049060Y-68782597D01*
X128106024Y-68819749D01*
X128086191Y-68840003D01*
X128037643Y-68852969D01*
X128014927Y-68869670D01*
X128038222Y-68901687D01*
X128114880Y-68953894D01*
X128252253Y-69031165D01*
X128457696Y-69138376D01*
X128503310Y-69161656D01*
X128701844Y-69261846D01*
X128873324Y-69346709D01*
X129003805Y-69409475D01*
X129079340Y-69443372D01*
X129091778Y-69447406D01*
X129115544Y-69410301D01*
X129142388Y-69316386D01*
X129152142Y-69267917D01*
X129173321Y-69159271D01*
X129189537Y-69125628D01*
X129210122Y-69158540D01*
X129226270Y-69200819D01*
X129242968Y-69236234D01*
X129264117Y-69247749D01*
X129296001Y-69227444D01*
X129344905Y-69167399D01*
X129417113Y-69059694D01*
X129518910Y-68896409D01*
X129656582Y-68669625D01*
X129684489Y-68623386D01*
X129814711Y-68405169D01*
X129928283Y-68210331D01*
X130018382Y-68050948D01*
X130078188Y-67939100D01*
X130100877Y-67886862D01*
X130100916Y-67886151D01*
X130063514Y-67855543D01*
X129970774Y-67838547D01*
X129942166Y-67837472D01*
X129783416Y-67835777D01*
X129910416Y-67768386D01*
X130001539Y-67718311D01*
X130053663Y-67686456D01*
X130055497Y-67684973D01*
X130040698Y-67647707D01*
X129982145Y-67572808D01*
X129949663Y-67536905D01*
X129880738Y-67459649D01*
X129869791Y-67433434D01*
X129913912Y-67450469D01*
X129918216Y-67452680D01*
X130004987Y-67492200D01*
X130034597Y-67490030D01*
X130005081Y-67443023D01*
X129914471Y-67348032D01*
X129762638Y-67203614D01*
X129615002Y-67069865D01*
X129516301Y-66990468D01*
X129456607Y-66958917D01*
X129425991Y-66968709D01*
X129420691Y-66979578D01*
X129389239Y-67021667D01*
X129366669Y-67003156D01*
X129324858Y-66976812D01*
X129257918Y-66999794D01*
X129161536Y-67076172D01*
X129031396Y-67210015D01*
X128863183Y-67405395D01*
X128652584Y-67666382D01*
X128620465Y-67707124D01*
X128456559Y-67916144D01*
X128304948Y-68110647D01*
X128175710Y-68277612D01*
X128078927Y-68404018D01*
X128025058Y-68476308D01*
X127933498Y-68604893D01*
X127474948Y-68604893D01*
X127460740Y-68579477D01*
X127460108Y-68535130D01*
X127520715Y-68536769D01*
X127530762Y-68539194D01*
X127587157Y-68547000D01*
X127613320Y-68520169D01*
X127618296Y-68439444D01*
X127615010Y-68359801D01*
X127604667Y-68156667D01*
X127665549Y-68283667D01*
X127708481Y-68387115D01*
X127728256Y-68461939D01*
X127728340Y-68463584D01*
X127754087Y-68512402D01*
X127812545Y-68495932D01*
X127856863Y-68453466D01*
X127914450Y-68410322D01*
X127942082Y-68410769D01*
X127985923Y-68394781D01*
X128039901Y-68332037D01*
X128086146Y-68268130D01*
X128175476Y-68150341D01*
X128298317Y-67991086D01*
X128445094Y-67802779D01*
X128602826Y-67602151D01*
X128805301Y-67344113D01*
X128959255Y-67143027D01*
X129069814Y-66990342D01*
X129142103Y-66877508D01*
X129181247Y-66795975D01*
X129192373Y-66737193D01*
X129180605Y-66692611D01*
X129163214Y-66667326D01*
X129131169Y-66620020D01*
X129163351Y-66618066D01*
X129201665Y-66629413D01*
X129275692Y-66638267D01*
X129296583Y-66593186D01*
X129318582Y-66535043D01*
X129338916Y-66526834D01*
X129375745Y-66561421D01*
X129381250Y-66594863D01*
X129406243Y-66642598D01*
X129449463Y-66636716D01*
X129498005Y-66633439D01*
X129493125Y-66674520D01*
X129499764Y-66728698D01*
X129539211Y-66738500D01*
X129584946Y-66749816D01*
X129558491Y-66789859D01*
X129547195Y-66826860D01*
X129575897Y-66887059D01*
X129651932Y-66980801D01*
X129782631Y-67118433D01*
X129813548Y-67149692D01*
X129944313Y-67278309D01*
X130054081Y-67380648D01*
X130128809Y-67443938D01*
X130152773Y-67458167D01*
X130181247Y-67423077D01*
X130186870Y-67384084D01*
X130193178Y-67338148D01*
X130218048Y-67364491D01*
X130235447Y-67394667D01*
X130285680Y-67476925D01*
X130325268Y-67492578D01*
X130385165Y-67448762D01*
X130402616Y-67433213D01*
X130465887Y-67379592D01*
X130480558Y-67385970D01*
X130463523Y-67447584D01*
X130449637Y-67520383D01*
X130458455Y-67542834D01*
X130508454Y-67523211D01*
X130616897Y-67469008D01*
X130771389Y-67387217D01*
X130959537Y-67284831D01*
X131168946Y-67168846D01*
X131387222Y-67046254D01*
X131601971Y-66924049D01*
X131800799Y-66809226D01*
X131971311Y-66708777D01*
X132101113Y-66629697D01*
X132177811Y-66578980D01*
X132193196Y-66563957D01*
X132203910Y-66517321D01*
X132219778Y-66504310D01*
X132248250Y-66446100D01*
X132242964Y-66416718D01*
X132254120Y-66367623D01*
X132303578Y-66357500D01*
X132372216Y-66335024D01*
X132388263Y-66304584D01*
X132407746Y-66287259D01*
X132445365Y-66325092D01*
X132500616Y-66371338D01*
X132530987Y-66368651D01*
X132574252Y-66371977D01*
X132597980Y-66398859D01*
X132620021Y-66417845D01*
X132665359Y-66429993D01*
X132744264Y-66435154D01*
X132867009Y-66433177D01*
X133043864Y-66423915D01*
X133285100Y-66407218D01*
X133579929Y-66384595D01*
X133915396Y-66357788D01*
X134175325Y-66335653D01*
X134368625Y-66316812D01*
X134504209Y-66299894D01*
X134590987Y-66283522D01*
X134637871Y-66266323D01*
X134653773Y-66246922D01*
X134647603Y-66223944D01*
X134645420Y-66220258D01*
X134647020Y-66191620D01*
X134687138Y-66200811D01*
X134745731Y-66204238D01*
X134757583Y-66185169D01*
X134781854Y-66173144D01*
X134816813Y-66197081D01*
X134858480Y-66249839D01*
X134859416Y-66269036D01*
X134865177Y-66300346D01*
X134934913Y-66343703D01*
X135072996Y-66400872D01*
X135283800Y-66473616D01*
X135571697Y-66563699D01*
X135643290Y-66585263D01*
X135866184Y-66651433D01*
X136060639Y-66708029D01*
X136212196Y-66750932D01*
X136306397Y-66776024D01*
X136329878Y-66780834D01*
X136346134Y-66749180D01*
X136337350Y-66712448D01*
X136332649Y-66665330D01*
X136385786Y-66668017D01*
X136402179Y-66672968D01*
X136452667Y-66682116D01*
X136482321Y-66662254D01*
X136492428Y-66600820D01*
X136484275Y-66485253D01*
X136459149Y-66302992D01*
X136447725Y-66228476D01*
X136420505Y-66028232D01*
X136412983Y-65909924D01*
X136424075Y-65873411D01*
X136452695Y-65918556D01*
G37*
G36*
X115959888Y-70327057D02*
G01*
X115967286Y-70420017D01*
X116001143Y-70449102D01*
X116078000Y-70436451D01*
X116155141Y-70421950D01*
X116164338Y-70440558D01*
X116141473Y-70471764D01*
X116124375Y-70505068D01*
X116148219Y-70527815D01*
X116226624Y-70544613D01*
X116373211Y-70560071D01*
X116412444Y-70563453D01*
X116543860Y-70570911D01*
X116744454Y-70577597D01*
X116998735Y-70583218D01*
X117291216Y-70587487D01*
X117606407Y-70590111D01*
X117874334Y-70590834D01*
X118213851Y-70590675D01*
X118478413Y-70589694D01*
X118677731Y-70587134D01*
X118821515Y-70582235D01*
X118919478Y-70574241D01*
X118981330Y-70562394D01*
X119016782Y-70545935D01*
X119035546Y-70524108D01*
X119046137Y-70499395D01*
X119074498Y-70435466D01*
X119103633Y-70444096D01*
X119140022Y-70493090D01*
X119225871Y-70558905D01*
X119369008Y-70611438D01*
X119411750Y-70621231D01*
X119623416Y-70664237D01*
X119485833Y-70696327D01*
X119393402Y-70725005D01*
X119350623Y-70752365D01*
X119350247Y-70754875D01*
X119382055Y-70788730D01*
X119467711Y-70864873D01*
X119594666Y-70973053D01*
X119750373Y-71103023D01*
X119922282Y-71244533D01*
X120097845Y-71387335D01*
X120264515Y-71521179D01*
X120409742Y-71635818D01*
X120520979Y-71721002D01*
X120585677Y-71766482D01*
X120594202Y-71770875D01*
X120608912Y-71760582D01*
X120586500Y-71730659D01*
X120533131Y-71659138D01*
X120540063Y-71633427D01*
X120594124Y-71657256D01*
X120658172Y-71710357D01*
X120782761Y-71829721D01*
X120845219Y-71686527D01*
X120907676Y-71543334D01*
X120911130Y-71685506D01*
X120919732Y-71780268D01*
X120952422Y-71811159D01*
X121022635Y-71800559D01*
X121096958Y-71787955D01*
X121105979Y-71815255D01*
X121086135Y-71856687D01*
X121046829Y-71944207D01*
X121058323Y-71981358D01*
X121105083Y-71987834D01*
X121161419Y-72010692D01*
X121168583Y-72030167D01*
X121134125Y-72067319D01*
X121102584Y-72072500D01*
X121057526Y-72091266D01*
X121060319Y-72110901D01*
X121100204Y-72143664D01*
X121198721Y-72214974D01*
X121344384Y-72317075D01*
X121525707Y-72442210D01*
X121731204Y-72582624D01*
X121949387Y-72730560D01*
X122168770Y-72878262D01*
X122377867Y-73017975D01*
X122565191Y-73141941D01*
X122719256Y-73242406D01*
X122828575Y-73311613D01*
X122881662Y-73341805D01*
X122884276Y-73342500D01*
X122902146Y-73307795D01*
X122902036Y-73268417D01*
X122899144Y-73173949D01*
X122923087Y-73158115D01*
X122981678Y-73218079D01*
X122994929Y-73234696D01*
X123085608Y-73349976D01*
X123183906Y-73229821D01*
X123282205Y-73109667D01*
X123283727Y-73270335D01*
X123285250Y-73431003D01*
X123444000Y-73401938D01*
X123544522Y-73385732D01*
X123574901Y-73393767D01*
X123548109Y-73434166D01*
X123529427Y-73455429D01*
X123502456Y-73489628D01*
X123500105Y-73515082D01*
X123534008Y-73535660D01*
X123615799Y-73555230D01*
X123757114Y-73577658D01*
X123969586Y-73606813D01*
X123995093Y-73610234D01*
X124465795Y-73673238D01*
X124932966Y-73735602D01*
X125389005Y-73796322D01*
X125826315Y-73854396D01*
X126237294Y-73908823D01*
X126614344Y-73958600D01*
X126949865Y-74002724D01*
X127236259Y-74040195D01*
X127465924Y-74070008D01*
X127631263Y-74091162D01*
X127724675Y-74102656D01*
X127742886Y-74104500D01*
X127756983Y-74077161D01*
X127746970Y-74054973D01*
X127744818Y-74023732D01*
X127792817Y-74034785D01*
X127836128Y-74043901D01*
X127854666Y-74015678D01*
X127852976Y-73932622D01*
X127843176Y-73840895D01*
X127835923Y-73720762D01*
X127847284Y-73676465D01*
X127870912Y-73702937D01*
X127900460Y-73795109D01*
X127922702Y-73904389D01*
X127945684Y-74005146D01*
X127974196Y-74035180D01*
X128009448Y-74016488D01*
X128057077Y-73991463D01*
X128068916Y-74036623D01*
X128089266Y-74084312D01*
X128163279Y-74087197D01*
X128185333Y-74083260D01*
X128262924Y-74069713D01*
X128262520Y-74079623D01*
X128206500Y-74110089D01*
X128132652Y-74164127D01*
X128111995Y-74211222D01*
X128153190Y-74231500D01*
X128153583Y-74231500D01*
X128194696Y-74262743D01*
X128195916Y-74272505D01*
X128164533Y-74294901D01*
X128127531Y-74287268D01*
X128081494Y-74281790D01*
X128082198Y-74331352D01*
X128091304Y-74362348D01*
X128108114Y-74430626D01*
X128086018Y-74431050D01*
X128057416Y-74408856D01*
X128002492Y-74379183D01*
X127970278Y-74421805D01*
X127963595Y-74441553D01*
X127929442Y-74502597D01*
X127903484Y-74509078D01*
X127875906Y-74538257D01*
X127822415Y-74632098D01*
X127749927Y-74777220D01*
X127665357Y-74960239D01*
X127635812Y-75027047D01*
X127532660Y-75261385D01*
X127425073Y-75503354D01*
X127325692Y-75724656D01*
X127247162Y-75896993D01*
X127246223Y-75899027D01*
X127173472Y-76058219D01*
X127134424Y-76152490D01*
X127126929Y-76193620D01*
X127148838Y-76193389D01*
X127197954Y-76163610D01*
X127288418Y-76109520D01*
X127324842Y-76106439D01*
X127309496Y-76160724D01*
X127244650Y-76278734D01*
X127241178Y-76284667D01*
X127129538Y-76475167D01*
X127271144Y-76478142D01*
X127397023Y-76490071D01*
X127496742Y-76513922D01*
X127540047Y-76538207D01*
X127520516Y-76562272D01*
X127428845Y-76596850D01*
X127423248Y-76598702D01*
X127295527Y-76650385D01*
X127240583Y-76704836D01*
X127247444Y-76777263D01*
X127266055Y-76816584D01*
X127296420Y-76902705D01*
X127267618Y-76930240D01*
X127183823Y-76896790D01*
X127156398Y-76879685D01*
X127076342Y-76833323D01*
X127034277Y-76820515D01*
X127033686Y-76821034D01*
X127017047Y-76867064D01*
X126989854Y-76965217D01*
X126979966Y-77004334D01*
X126938130Y-77173667D01*
X126888434Y-77046667D01*
X126846634Y-76938175D01*
X126817576Y-76860028D01*
X126787766Y-76835836D01*
X126726671Y-76870527D01*
X126671107Y-76920442D01*
X126574253Y-77000216D01*
X126523913Y-77010346D01*
X126521211Y-76951185D01*
X126543732Y-76880449D01*
X126579679Y-76768501D01*
X126569380Y-76708577D01*
X126502378Y-76675968D01*
X126452059Y-76663868D01*
X126365465Y-76640092D01*
X126351610Y-76614845D01*
X126388982Y-76581445D01*
X126409727Y-76555959D01*
X126389169Y-76531921D01*
X126316402Y-76505130D01*
X126180518Y-76471385D01*
X126005589Y-76433749D01*
X125831905Y-76397467D01*
X125593795Y-76347624D01*
X125309687Y-76288083D01*
X124998008Y-76222707D01*
X124677188Y-76155359D01*
X124502333Y-76118628D01*
X123454583Y-75898474D01*
X123454583Y-76017487D01*
X123448088Y-76108928D01*
X123419340Y-76128042D01*
X123354443Y-76078072D01*
X123323778Y-76048029D01*
X123235306Y-75959557D01*
X123136299Y-76052570D01*
X123037291Y-76145583D01*
X123023687Y-76003643D01*
X123001774Y-75902241D01*
X122945513Y-75855020D01*
X122884273Y-75840142D01*
X122758462Y-75818581D01*
X122881910Y-75728656D01*
X122961524Y-75665678D01*
X122980485Y-75617540D01*
X122946710Y-75549413D01*
X122928870Y-75521996D01*
X122852383Y-75405262D01*
X122962983Y-75433021D01*
X123073583Y-75460780D01*
X123069874Y-74920223D01*
X123066287Y-74735713D01*
X123058703Y-74545387D01*
X123048249Y-74362814D01*
X123036049Y-74201563D01*
X123023227Y-74075200D01*
X123010908Y-73997295D01*
X123000216Y-73981416D01*
X122994572Y-74011749D01*
X122965613Y-74046772D01*
X122946427Y-74040904D01*
X122923270Y-73984821D01*
X122929850Y-73911406D01*
X122937195Y-73871667D01*
X123106474Y-73871667D01*
X123132362Y-74333336D01*
X123144056Y-74562979D01*
X123154127Y-74799233D01*
X123161132Y-75006401D01*
X123163160Y-75095336D01*
X123167886Y-75229960D01*
X123175907Y-75312151D01*
X123185636Y-75327112D01*
X123187431Y-75321584D01*
X123222808Y-75254932D01*
X123265187Y-75267360D01*
X123303124Y-75355314D01*
X123303726Y-75357688D01*
X123331137Y-75429811D01*
X123382157Y-75452218D01*
X123479952Y-75440005D01*
X123628521Y-75412133D01*
X123563787Y-75537315D01*
X123524440Y-75625856D01*
X123534878Y-75677918D01*
X123602984Y-75730593D01*
X123605167Y-75732025D01*
X123674290Y-75789782D01*
X123692587Y-75831790D01*
X123692411Y-75832086D01*
X123728316Y-75846126D01*
X123835689Y-75874788D01*
X124003078Y-75915581D01*
X124219032Y-75966011D01*
X124472098Y-76023587D01*
X124750826Y-76085816D01*
X125043764Y-76150206D01*
X125339460Y-76214264D01*
X125626464Y-76275498D01*
X125893324Y-76331416D01*
X126128587Y-76379525D01*
X126320804Y-76417333D01*
X126458522Y-76442347D01*
X126530290Y-76452076D01*
X126537763Y-76451367D01*
X126531159Y-76410601D01*
X126502583Y-76348167D01*
X126472090Y-76259303D01*
X126504537Y-76226686D01*
X126598588Y-76251450D01*
X126610229Y-76256624D01*
X126705289Y-76296391D01*
X126746966Y-76292926D01*
X126758474Y-76239069D01*
X126759558Y-76210584D01*
X126777598Y-76091402D01*
X126796223Y-76030667D01*
X126820988Y-75987007D01*
X126847759Y-76002147D01*
X126888689Y-76085559D01*
X126899637Y-76111250D01*
X126945848Y-76208083D01*
X126980037Y-76257175D01*
X126987461Y-76258400D01*
X127020113Y-76203718D01*
X127078638Y-76084363D01*
X127157130Y-75914139D01*
X127249679Y-75706848D01*
X127350378Y-75476291D01*
X127453317Y-75236273D01*
X127552590Y-75000594D01*
X127642287Y-74783058D01*
X127716500Y-74597468D01*
X127769321Y-74457626D01*
X127794841Y-74377333D01*
X127796201Y-74369084D01*
X127796034Y-74274185D01*
X127761978Y-74236888D01*
X127705569Y-74231500D01*
X127627708Y-74216557D01*
X127603250Y-74189167D01*
X127567230Y-74156610D01*
X127503922Y-74146834D01*
X127444529Y-74141410D01*
X127311486Y-74126035D01*
X127115055Y-74102052D01*
X126865496Y-74070804D01*
X126573069Y-74033634D01*
X126248035Y-73991885D01*
X125900655Y-73946901D01*
X125541188Y-73900025D01*
X125179896Y-73852600D01*
X124827040Y-73805969D01*
X124492879Y-73761475D01*
X124187675Y-73720462D01*
X123921687Y-73684273D01*
X123705177Y-73654251D01*
X123548405Y-73631739D01*
X123461632Y-73618080D01*
X123454583Y-73616736D01*
X123348750Y-73595207D01*
X123444000Y-73676723D01*
X123521499Y-73752773D01*
X123525394Y-73793083D01*
X123453458Y-73807449D01*
X123414127Y-73808167D01*
X123289005Y-73808167D01*
X123351079Y-73984104D01*
X123385196Y-74093965D01*
X123398611Y-74165174D01*
X123396412Y-74176782D01*
X123362254Y-74157352D01*
X123293295Y-74089313D01*
X123243072Y-74032595D01*
X123106474Y-73871667D01*
X122937195Y-73871667D01*
X122944109Y-73834262D01*
X122940589Y-73808625D01*
X122894927Y-73820123D01*
X122794611Y-73849053D01*
X122717353Y-73872201D01*
X122597104Y-73905546D01*
X122515534Y-73922266D01*
X122495711Y-73921739D01*
X122518444Y-73891375D01*
X122591472Y-73828804D01*
X122649857Y-73784080D01*
X122747174Y-73706554D01*
X122808196Y-73647313D01*
X122818582Y-73629514D01*
X122785745Y-73592273D01*
X122701476Y-73533032D01*
X122650576Y-73502514D01*
X122530685Y-73426959D01*
X122488762Y-73382130D01*
X122524871Y-73368636D01*
X122638478Y-73386952D01*
X122741047Y-73407791D01*
X122798963Y-73415158D01*
X122803031Y-73414244D01*
X122772804Y-73388517D01*
X122683164Y-73324335D01*
X122545682Y-73229387D01*
X122371932Y-73111361D01*
X122173486Y-72977948D01*
X121961917Y-72836835D01*
X121748798Y-72695713D01*
X121545702Y-72562270D01*
X121364202Y-72444196D01*
X121215870Y-72349179D01*
X121112279Y-72284909D01*
X121065003Y-72259075D01*
X121064148Y-72258909D01*
X120990603Y-72239697D01*
X120944299Y-72221849D01*
X120860103Y-72221006D01*
X120808062Y-72268274D01*
X120762829Y-72321215D01*
X120748301Y-72300208D01*
X120746596Y-72251330D01*
X120740591Y-72188880D01*
X120709446Y-72178563D01*
X120629678Y-72214769D01*
X120618250Y-72220667D01*
X120525762Y-72254354D01*
X120491497Y-72239136D01*
X120524828Y-72184390D01*
X120554750Y-72157167D01*
X120606349Y-72087794D01*
X120614561Y-72020809D01*
X120576259Y-71988026D01*
X120571387Y-71987834D01*
X120542328Y-71957331D01*
X120547556Y-71927814D01*
X120523296Y-71876692D01*
X120430198Y-71777378D01*
X120268732Y-71630313D01*
X120039367Y-71435938D01*
X119916577Y-71335147D01*
X119716364Y-71172714D01*
X119539307Y-71030258D01*
X119395541Y-70915839D01*
X119295205Y-70837514D01*
X119248434Y-70803341D01*
X119246497Y-70802500D01*
X119225810Y-70838265D01*
X119202111Y-70915323D01*
X119173795Y-71028145D01*
X119092311Y-70894156D01*
X119003386Y-70790995D01*
X118901873Y-70760167D01*
X118829462Y-70746797D01*
X118819083Y-70717834D01*
X118787490Y-70702572D01*
X118672873Y-70690638D01*
X118476810Y-70682103D01*
X118200883Y-70677036D01*
X117875585Y-70675500D01*
X117569013Y-70674243D01*
X117264923Y-70670728D01*
X116982394Y-70665345D01*
X116740506Y-70658480D01*
X116558338Y-70650521D01*
X116517285Y-70647914D01*
X116334168Y-70636504D01*
X116221174Y-70634876D01*
X116164170Y-70644468D01*
X116149023Y-70666718D01*
X116153440Y-70684939D01*
X116150133Y-70734019D01*
X116080492Y-70744275D01*
X116012930Y-70752274D01*
X115993233Y-70802954D01*
X115997746Y-70865971D01*
X116004948Y-70952092D01*
X115985768Y-70964232D01*
X115923838Y-70912486D01*
X115923219Y-70911926D01*
X115859292Y-70860683D01*
X115811299Y-70860748D01*
X115743720Y-70915477D01*
X115727792Y-70930400D01*
X115621888Y-71029891D01*
X115650046Y-70889103D01*
X115678203Y-70748314D01*
X115512976Y-70779284D01*
X115347750Y-70810253D01*
X115466375Y-70716900D01*
X115542208Y-70651288D01*
X115557427Y-70606022D01*
X115519907Y-70551673D01*
X115512730Y-70543690D01*
X115467162Y-70485923D01*
X115488239Y-70466006D01*
X115553662Y-70463834D01*
X115632718Y-70454102D01*
X115651685Y-70407273D01*
X115641939Y-70347417D01*
X115617016Y-70231000D01*
X115700835Y-70326250D01*
X115775638Y-70401899D01*
X115824887Y-70407847D01*
X115875025Y-70341211D01*
X115895036Y-70305084D01*
X115958193Y-70188667D01*
X115959888Y-70327057D01*
G37*
G36*
X130247388Y-94139557D02*
G01*
X130254786Y-94232517D01*
X130288643Y-94261602D01*
X130365500Y-94248951D01*
X130442641Y-94234450D01*
X130451838Y-94253058D01*
X130428973Y-94284264D01*
X130411875Y-94317568D01*
X130435719Y-94340315D01*
X130514124Y-94357113D01*
X130660711Y-94372571D01*
X130699944Y-94375953D01*
X130831360Y-94383411D01*
X131031954Y-94390097D01*
X131286235Y-94395718D01*
X131578716Y-94399987D01*
X131893907Y-94402611D01*
X132161834Y-94403334D01*
X132501351Y-94403175D01*
X132765913Y-94402194D01*
X132965231Y-94399634D01*
X133109015Y-94394735D01*
X133206978Y-94386741D01*
X133268830Y-94374894D01*
X133304282Y-94358435D01*
X133323046Y-94336608D01*
X133333637Y-94311895D01*
X133361998Y-94247966D01*
X133391133Y-94256596D01*
X133427522Y-94305590D01*
X133513371Y-94371405D01*
X133656508Y-94423938D01*
X133699250Y-94433731D01*
X133910916Y-94476737D01*
X133773333Y-94508827D01*
X133680902Y-94537505D01*
X133638123Y-94564865D01*
X133637747Y-94567375D01*
X133669555Y-94601230D01*
X133755211Y-94677373D01*
X133882166Y-94785553D01*
X134037873Y-94915523D01*
X134209782Y-95057033D01*
X134385345Y-95199835D01*
X134552015Y-95333679D01*
X134697242Y-95448318D01*
X134808479Y-95533502D01*
X134873177Y-95578982D01*
X134881702Y-95583375D01*
X134896412Y-95573082D01*
X134874000Y-95543159D01*
X134820631Y-95471638D01*
X134827563Y-95445927D01*
X134881624Y-95469756D01*
X134945672Y-95522857D01*
X135070261Y-95642221D01*
X135132719Y-95499027D01*
X135195176Y-95355834D01*
X135198630Y-95498006D01*
X135207232Y-95592768D01*
X135239922Y-95623659D01*
X135310135Y-95613059D01*
X135384458Y-95600455D01*
X135393479Y-95627755D01*
X135373635Y-95669187D01*
X135334329Y-95756707D01*
X135345823Y-95793858D01*
X135392583Y-95800334D01*
X135448919Y-95823192D01*
X135456083Y-95842667D01*
X135421625Y-95879819D01*
X135390084Y-95885000D01*
X135345026Y-95903766D01*
X135347819Y-95923401D01*
X135387704Y-95956164D01*
X135486221Y-96027474D01*
X135631884Y-96129575D01*
X135813207Y-96254710D01*
X136018704Y-96395124D01*
X136236887Y-96543060D01*
X136456270Y-96690762D01*
X136665367Y-96830475D01*
X136852691Y-96954441D01*
X137006756Y-97054906D01*
X137116075Y-97124113D01*
X137169162Y-97154305D01*
X137171776Y-97155000D01*
X137189646Y-97120295D01*
X137189536Y-97080917D01*
X137186644Y-96986449D01*
X137210587Y-96970615D01*
X137269178Y-97030579D01*
X137282429Y-97047196D01*
X137373108Y-97162476D01*
X137471406Y-97042321D01*
X137569705Y-96922167D01*
X137571227Y-97082835D01*
X137572750Y-97243503D01*
X137731500Y-97214438D01*
X137832022Y-97198232D01*
X137862401Y-97206267D01*
X137835609Y-97246666D01*
X137816927Y-97267929D01*
X137789956Y-97302128D01*
X137787605Y-97327582D01*
X137821508Y-97348160D01*
X137903299Y-97367730D01*
X138044614Y-97390158D01*
X138257086Y-97419313D01*
X138282593Y-97422734D01*
X138753295Y-97485738D01*
X139220466Y-97548102D01*
X139676505Y-97608822D01*
X140113815Y-97666896D01*
X140524794Y-97721323D01*
X140901844Y-97771100D01*
X141237365Y-97815224D01*
X141523759Y-97852695D01*
X141753424Y-97882508D01*
X141918763Y-97903662D01*
X142012175Y-97915156D01*
X142030386Y-97917000D01*
X142044483Y-97889661D01*
X142034470Y-97867473D01*
X142032318Y-97836232D01*
X142080317Y-97847285D01*
X142123628Y-97856401D01*
X142142166Y-97828178D01*
X142140476Y-97745122D01*
X142130676Y-97653395D01*
X142123423Y-97533262D01*
X142134784Y-97488965D01*
X142158412Y-97515437D01*
X142187960Y-97607609D01*
X142210202Y-97716889D01*
X142233184Y-97817646D01*
X142261696Y-97847680D01*
X142296948Y-97828988D01*
X142344577Y-97803963D01*
X142356416Y-97849123D01*
X142376766Y-97896812D01*
X142450779Y-97899697D01*
X142472833Y-97895760D01*
X142550424Y-97882213D01*
X142550020Y-97892123D01*
X142494000Y-97922589D01*
X142420152Y-97976627D01*
X142399495Y-98023722D01*
X142440690Y-98044000D01*
X142441083Y-98044000D01*
X142482196Y-98075243D01*
X142483416Y-98085005D01*
X142452033Y-98107401D01*
X142415031Y-98099768D01*
X142368994Y-98094290D01*
X142369698Y-98143852D01*
X142378804Y-98174848D01*
X142395614Y-98243126D01*
X142373518Y-98243550D01*
X142344916Y-98221356D01*
X142289992Y-98191683D01*
X142257778Y-98234305D01*
X142251095Y-98254053D01*
X142216942Y-98315097D01*
X142190984Y-98321578D01*
X142163406Y-98350757D01*
X142109915Y-98444598D01*
X142037427Y-98589720D01*
X141952857Y-98772739D01*
X141923312Y-98839547D01*
X141820160Y-99073885D01*
X141712573Y-99315854D01*
X141613192Y-99537156D01*
X141534662Y-99709493D01*
X141533723Y-99711527D01*
X141460972Y-99870719D01*
X141421924Y-99964990D01*
X141414429Y-100006120D01*
X141436338Y-100005889D01*
X141485454Y-99976110D01*
X141575918Y-99922020D01*
X141612342Y-99918939D01*
X141596996Y-99973224D01*
X141532150Y-100091234D01*
X141528678Y-100097167D01*
X141417038Y-100287667D01*
X141558644Y-100290642D01*
X141684523Y-100302571D01*
X141784242Y-100326422D01*
X141827547Y-100350707D01*
X141808016Y-100374772D01*
X141716345Y-100409350D01*
X141710748Y-100411202D01*
X141583027Y-100462885D01*
X141528083Y-100517336D01*
X141534944Y-100589763D01*
X141553555Y-100629084D01*
X141583920Y-100715205D01*
X141555118Y-100742740D01*
X141471323Y-100709290D01*
X141443898Y-100692185D01*
X141363842Y-100645823D01*
X141321777Y-100633015D01*
X141321186Y-100633534D01*
X141304547Y-100679564D01*
X141277354Y-100777717D01*
X141267466Y-100816834D01*
X141225630Y-100986167D01*
X141175934Y-100859167D01*
X141134134Y-100750675D01*
X141105076Y-100672528D01*
X141075266Y-100648336D01*
X141014171Y-100683027D01*
X140958607Y-100732942D01*
X140861753Y-100812716D01*
X140811413Y-100822846D01*
X140808711Y-100763685D01*
X140831232Y-100692949D01*
X140867179Y-100581001D01*
X140856880Y-100521077D01*
X140789878Y-100488468D01*
X140739559Y-100476368D01*
X140652965Y-100452592D01*
X140639110Y-100427345D01*
X140676482Y-100393945D01*
X140697227Y-100368459D01*
X140676669Y-100344421D01*
X140603902Y-100317630D01*
X140468018Y-100283885D01*
X140293089Y-100246249D01*
X140119405Y-100209967D01*
X139881295Y-100160124D01*
X139597187Y-100100583D01*
X139285508Y-100035207D01*
X138964688Y-99967859D01*
X138789833Y-99931128D01*
X137742083Y-99710974D01*
X137742083Y-99829987D01*
X137735588Y-99921428D01*
X137706840Y-99940542D01*
X137641943Y-99890572D01*
X137611278Y-99860529D01*
X137522806Y-99772057D01*
X137423799Y-99865070D01*
X137324791Y-99958083D01*
X137311187Y-99816143D01*
X137289274Y-99714741D01*
X137233013Y-99667520D01*
X137171773Y-99652642D01*
X137045962Y-99631081D01*
X137169410Y-99541156D01*
X137249024Y-99478178D01*
X137267985Y-99430040D01*
X137234210Y-99361913D01*
X137216370Y-99334496D01*
X137139883Y-99217762D01*
X137250483Y-99245521D01*
X137361083Y-99273280D01*
X137357374Y-98732723D01*
X137353787Y-98548213D01*
X137346203Y-98357887D01*
X137335749Y-98175314D01*
X137323549Y-98014063D01*
X137310727Y-97887700D01*
X137298408Y-97809795D01*
X137287716Y-97793916D01*
X137282072Y-97824249D01*
X137253113Y-97859272D01*
X137233927Y-97853404D01*
X137210770Y-97797321D01*
X137217350Y-97723906D01*
X137224695Y-97684167D01*
X137393974Y-97684167D01*
X137419862Y-98145836D01*
X137431556Y-98375479D01*
X137441627Y-98611733D01*
X137448632Y-98818901D01*
X137450660Y-98907836D01*
X137455386Y-99042460D01*
X137463407Y-99124651D01*
X137473136Y-99139612D01*
X137474931Y-99134084D01*
X137510308Y-99067432D01*
X137552687Y-99079860D01*
X137590624Y-99167814D01*
X137591226Y-99170188D01*
X137618637Y-99242311D01*
X137669657Y-99264718D01*
X137767452Y-99252505D01*
X137916021Y-99224633D01*
X137851287Y-99349815D01*
X137811940Y-99438356D01*
X137822378Y-99490418D01*
X137890484Y-99543093D01*
X137892667Y-99544525D01*
X137961790Y-99602282D01*
X137980087Y-99644290D01*
X137979911Y-99644586D01*
X138015816Y-99658626D01*
X138123189Y-99687288D01*
X138290578Y-99728081D01*
X138506532Y-99778511D01*
X138759598Y-99836087D01*
X139038326Y-99898316D01*
X139331264Y-99962706D01*
X139626960Y-100026764D01*
X139913964Y-100087998D01*
X140180824Y-100143916D01*
X140416087Y-100192025D01*
X140608304Y-100229833D01*
X140746022Y-100254847D01*
X140817790Y-100264576D01*
X140825263Y-100263867D01*
X140818659Y-100223101D01*
X140790083Y-100160667D01*
X140759590Y-100071803D01*
X140792037Y-100039186D01*
X140886088Y-100063950D01*
X140897729Y-100069124D01*
X140992789Y-100108891D01*
X141034466Y-100105426D01*
X141045974Y-100051569D01*
X141047058Y-100023084D01*
X141065098Y-99903902D01*
X141083723Y-99843167D01*
X141108488Y-99799507D01*
X141135259Y-99814647D01*
X141176189Y-99898059D01*
X141187137Y-99923750D01*
X141233348Y-100020583D01*
X141267537Y-100069675D01*
X141274961Y-100070900D01*
X141307613Y-100016218D01*
X141366138Y-99896863D01*
X141444630Y-99726639D01*
X141537179Y-99519348D01*
X141637878Y-99288791D01*
X141740817Y-99048773D01*
X141840090Y-98813094D01*
X141929787Y-98595558D01*
X142004000Y-98409968D01*
X142056821Y-98270126D01*
X142082341Y-98189833D01*
X142083701Y-98181584D01*
X142083534Y-98086685D01*
X142049478Y-98049388D01*
X141993069Y-98044000D01*
X141915208Y-98029057D01*
X141890750Y-98001667D01*
X141854730Y-97969110D01*
X141791422Y-97959334D01*
X141732029Y-97953910D01*
X141598986Y-97938535D01*
X141402555Y-97914552D01*
X141152996Y-97883304D01*
X140860569Y-97846134D01*
X140535535Y-97804385D01*
X140188155Y-97759401D01*
X139828688Y-97712525D01*
X139467396Y-97665100D01*
X139114540Y-97618469D01*
X138780379Y-97573975D01*
X138475175Y-97532962D01*
X138209187Y-97496773D01*
X137992677Y-97466751D01*
X137835905Y-97444239D01*
X137749132Y-97430580D01*
X137742083Y-97429236D01*
X137636250Y-97407707D01*
X137731500Y-97489223D01*
X137808999Y-97565273D01*
X137812894Y-97605583D01*
X137740958Y-97619949D01*
X137701627Y-97620667D01*
X137576505Y-97620667D01*
X137638579Y-97796604D01*
X137672696Y-97906465D01*
X137686111Y-97977674D01*
X137683912Y-97989282D01*
X137649754Y-97969852D01*
X137580795Y-97901813D01*
X137530572Y-97845095D01*
X137393974Y-97684167D01*
X137224695Y-97684167D01*
X137231609Y-97646762D01*
X137228089Y-97621125D01*
X137182427Y-97632623D01*
X137082111Y-97661553D01*
X137004853Y-97684701D01*
X136884604Y-97718046D01*
X136803034Y-97734766D01*
X136783211Y-97734239D01*
X136805944Y-97703875D01*
X136878972Y-97641304D01*
X136937357Y-97596580D01*
X137034674Y-97519054D01*
X137095696Y-97459813D01*
X137106082Y-97442014D01*
X137073245Y-97404773D01*
X136988976Y-97345532D01*
X136938076Y-97315014D01*
X136818185Y-97239459D01*
X136776262Y-97194630D01*
X136812371Y-97181136D01*
X136925978Y-97199452D01*
X137028547Y-97220291D01*
X137086463Y-97227658D01*
X137090531Y-97226744D01*
X137060304Y-97201017D01*
X136970664Y-97136835D01*
X136833182Y-97041887D01*
X136659432Y-96923861D01*
X136460986Y-96790448D01*
X136249417Y-96649335D01*
X136036298Y-96508213D01*
X135833202Y-96374770D01*
X135651702Y-96256696D01*
X135503370Y-96161679D01*
X135399779Y-96097409D01*
X135352503Y-96071575D01*
X135351648Y-96071409D01*
X135278103Y-96052197D01*
X135231799Y-96034349D01*
X135147603Y-96033506D01*
X135095562Y-96080774D01*
X135050329Y-96133715D01*
X135035801Y-96112708D01*
X135034096Y-96063830D01*
X135028091Y-96001380D01*
X134996946Y-95991063D01*
X134917178Y-96027269D01*
X134905750Y-96033167D01*
X134813262Y-96066854D01*
X134778997Y-96051636D01*
X134812328Y-95996890D01*
X134842250Y-95969667D01*
X134893849Y-95900294D01*
X134902061Y-95833309D01*
X134863759Y-95800526D01*
X134858887Y-95800334D01*
X134829828Y-95769831D01*
X134835056Y-95740314D01*
X134810796Y-95689192D01*
X134717698Y-95589878D01*
X134556232Y-95442813D01*
X134326867Y-95248438D01*
X134204077Y-95147647D01*
X134003864Y-94985214D01*
X133826807Y-94842758D01*
X133683041Y-94728339D01*
X133582705Y-94650014D01*
X133535934Y-94615841D01*
X133533997Y-94615000D01*
X133513310Y-94650765D01*
X133489611Y-94727823D01*
X133461295Y-94840645D01*
X133379811Y-94706656D01*
X133290886Y-94603495D01*
X133189373Y-94572667D01*
X133116962Y-94559297D01*
X133106583Y-94530334D01*
X133074990Y-94515072D01*
X132960373Y-94503138D01*
X132764310Y-94494603D01*
X132488383Y-94489536D01*
X132163085Y-94488000D01*
X131856513Y-94486743D01*
X131552423Y-94483228D01*
X131269894Y-94477845D01*
X131028006Y-94470980D01*
X130845838Y-94463021D01*
X130804785Y-94460414D01*
X130621668Y-94449004D01*
X130508674Y-94447376D01*
X130451670Y-94456968D01*
X130436523Y-94479218D01*
X130440940Y-94497439D01*
X130437633Y-94546519D01*
X130367992Y-94556775D01*
X130300430Y-94564774D01*
X130280733Y-94615454D01*
X130285246Y-94678471D01*
X130292448Y-94764592D01*
X130273268Y-94776732D01*
X130211338Y-94724986D01*
X130210719Y-94724426D01*
X130146792Y-94673183D01*
X130098799Y-94673248D01*
X130031220Y-94727977D01*
X130015292Y-94742900D01*
X129909388Y-94842391D01*
X129937546Y-94701603D01*
X129965703Y-94560814D01*
X129800476Y-94591784D01*
X129635250Y-94622753D01*
X129753875Y-94529400D01*
X129829708Y-94463788D01*
X129844927Y-94418522D01*
X129807407Y-94364173D01*
X129800230Y-94356190D01*
X129754662Y-94298423D01*
X129775739Y-94278506D01*
X129841162Y-94276334D01*
X129920218Y-94266602D01*
X129939185Y-94219773D01*
X129929439Y-94159917D01*
X129904516Y-94043500D01*
X129988335Y-94138750D01*
X130063138Y-94214399D01*
X130112387Y-94220347D01*
X130162525Y-94153711D01*
X130182536Y-94117584D01*
X130245693Y-94001167D01*
X130247388Y-94139557D01*
G37*
G36*
X150740195Y-89731056D02*
G01*
X150785257Y-89857716D01*
X150842686Y-90054810D01*
X150967235Y-90509713D01*
X151067461Y-90392773D01*
X151167688Y-90275834D01*
X151144610Y-90413417D01*
X151133070Y-90499377D01*
X151148291Y-90538758D01*
X151208526Y-90540703D01*
X151332028Y-90514354D01*
X151341666Y-90512115D01*
X151456555Y-90493464D01*
X151494013Y-90507056D01*
X151453760Y-90550260D01*
X151352250Y-90611540D01*
X151258515Y-90668372D01*
X151207312Y-90711774D01*
X151204083Y-90719319D01*
X151238095Y-90754619D01*
X151321905Y-90805655D01*
X151341666Y-90815779D01*
X151479250Y-90884252D01*
X151320500Y-90886959D01*
X151216477Y-90891204D01*
X151172823Y-90912989D01*
X151179708Y-90972923D01*
X151225250Y-91086696D01*
X151272921Y-91207745D01*
X151279626Y-91256089D01*
X151239931Y-91235874D01*
X151148404Y-91151246D01*
X151144986Y-91147934D01*
X151001222Y-91008593D01*
X150971932Y-91181963D01*
X150940061Y-91305884D01*
X150905734Y-91349950D01*
X150877893Y-91313823D01*
X150865477Y-91197164D01*
X150865416Y-91186000D01*
X150857232Y-91066521D01*
X150825386Y-91022963D01*
X150758938Y-91047545D01*
X150714757Y-91078820D01*
X150626894Y-91134278D01*
X150594053Y-91125412D01*
X150615565Y-91051670D01*
X150634617Y-91012733D01*
X150674226Y-90919980D01*
X150682851Y-90863670D01*
X150680807Y-90860279D01*
X150630004Y-90842916D01*
X150522651Y-90821432D01*
X150434268Y-90807849D01*
X150309392Y-90789276D01*
X150260025Y-90775245D01*
X150277628Y-90760086D01*
X150336250Y-90742782D01*
X150438059Y-90712023D01*
X150500620Y-90687342D01*
X150474954Y-90669453D01*
X150383591Y-90633231D01*
X150242238Y-90583627D01*
X150066600Y-90525589D01*
X149872384Y-90464069D01*
X149675295Y-90404015D01*
X149491039Y-90350378D01*
X149335322Y-90308107D01*
X149223851Y-90282152D01*
X149203833Y-90278654D01*
X149122895Y-90275538D01*
X149089767Y-90315895D01*
X149081651Y-90395333D01*
X149076261Y-90477231D01*
X149068028Y-90478981D01*
X149056412Y-90424000D01*
X148994700Y-90304011D01*
X148867554Y-90232633D01*
X148833416Y-90224564D01*
X148756663Y-90221459D01*
X148613403Y-90226010D01*
X148419163Y-90236893D01*
X148189468Y-90252783D01*
X147939844Y-90272358D01*
X147685816Y-90294293D01*
X147442911Y-90317264D01*
X147226654Y-90339946D01*
X147052570Y-90361017D01*
X146936186Y-90379151D01*
X146896666Y-90389730D01*
X146823849Y-90448842D01*
X146801416Y-90499837D01*
X146786834Y-90538184D01*
X146745363Y-90514847D01*
X146707586Y-90492016D01*
X146658940Y-90484925D01*
X146590051Y-90497371D01*
X146491540Y-90533152D01*
X146354033Y-90596064D01*
X146168154Y-90689904D01*
X145924526Y-90818468D01*
X145706389Y-90935586D01*
X145406256Y-91100121D01*
X145180556Y-91230203D01*
X145027032Y-91327249D01*
X144943424Y-91392674D01*
X144925887Y-91425209D01*
X144925781Y-91476194D01*
X144911529Y-91482982D01*
X144847100Y-91504044D01*
X144814472Y-91522089D01*
X144775771Y-91564568D01*
X144805211Y-91622572D01*
X144809072Y-91627274D01*
X144839214Y-91677695D01*
X144799694Y-91693337D01*
X144769795Y-91694000D01*
X144704734Y-91706330D01*
X144687563Y-91760030D01*
X144693780Y-91821000D01*
X144697649Y-91920630D01*
X144673238Y-91941554D01*
X144627467Y-91882069D01*
X144607786Y-91842167D01*
X144561398Y-91764497D01*
X144525459Y-91736334D01*
X144495720Y-91770635D01*
X144430930Y-91864891D01*
X144339049Y-92006128D01*
X144228038Y-92181372D01*
X144105855Y-92377649D01*
X143980461Y-92581985D01*
X143859816Y-92781408D01*
X143751880Y-92962942D01*
X143664614Y-93113616D01*
X143605976Y-93220454D01*
X143583928Y-93270483D01*
X143583914Y-93270917D01*
X143619502Y-93296997D01*
X143666251Y-93302667D01*
X143751879Y-93321550D01*
X143770924Y-93362987D01*
X143717457Y-93404156D01*
X143694433Y-93411149D01*
X143593700Y-93476991D01*
X143546737Y-93560557D01*
X143506282Y-93657639D01*
X143475999Y-93673339D01*
X143447966Y-93608986D01*
X143439861Y-93578478D01*
X143375256Y-93479495D01*
X143307134Y-93446603D01*
X143234938Y-93413145D01*
X143240231Y-93371875D01*
X143229565Y-93335585D01*
X143153864Y-93274667D01*
X143008922Y-93186293D01*
X142790532Y-93067637D01*
X142777657Y-93060883D01*
X142553023Y-92947021D01*
X142399261Y-92877864D01*
X142316661Y-92853531D01*
X142302626Y-92868204D01*
X142307647Y-92904977D01*
X142268287Y-92891988D01*
X142199714Y-92845994D01*
X142069837Y-92753514D01*
X142013173Y-92954007D01*
X141956509Y-93154500D01*
X141942391Y-92951327D01*
X141929858Y-92830109D01*
X141907939Y-92775300D01*
X141866697Y-92768644D01*
X141846011Y-92774263D01*
X141776956Y-92777529D01*
X141771061Y-92734168D01*
X141814550Y-92676134D01*
X141822153Y-92650460D01*
X141775292Y-92634693D01*
X141663203Y-92626970D01*
X141520715Y-92625334D01*
X141347826Y-92619439D01*
X141223465Y-92604488D01*
X141154539Y-92584583D01*
X141147957Y-92563825D01*
X141210626Y-92546314D01*
X141349453Y-92536151D01*
X141369668Y-92535658D01*
X141492993Y-92529041D01*
X141620800Y-92515919D01*
X141734512Y-92499361D01*
X141815553Y-92482440D01*
X141845347Y-92468227D01*
X141821195Y-92461009D01*
X141765081Y-92422102D01*
X141762448Y-92417393D01*
X142220998Y-92417393D01*
X142341624Y-92391413D01*
X142462250Y-92365433D01*
X142357727Y-92456761D01*
X142289721Y-92521023D01*
X142282378Y-92557332D01*
X142331625Y-92592308D01*
X142336560Y-92595097D01*
X142393524Y-92632249D01*
X142373691Y-92652503D01*
X142325143Y-92665469D01*
X142302427Y-92682170D01*
X142325722Y-92714187D01*
X142402380Y-92766394D01*
X142539753Y-92843665D01*
X142745196Y-92950876D01*
X142790810Y-92974156D01*
X142989344Y-93074346D01*
X143160824Y-93159209D01*
X143291305Y-93221975D01*
X143366840Y-93255872D01*
X143379278Y-93259906D01*
X143403044Y-93222801D01*
X143429888Y-93128886D01*
X143439642Y-93080417D01*
X143460821Y-92971771D01*
X143477037Y-92938128D01*
X143497622Y-92971040D01*
X143513770Y-93013319D01*
X143530468Y-93048734D01*
X143551617Y-93060249D01*
X143583501Y-93039944D01*
X143632405Y-92979899D01*
X143704613Y-92872194D01*
X143806410Y-92708909D01*
X143944082Y-92482125D01*
X143971989Y-92435886D01*
X144102211Y-92217669D01*
X144215783Y-92022831D01*
X144305882Y-91863448D01*
X144365688Y-91751600D01*
X144388377Y-91699362D01*
X144388416Y-91698651D01*
X144351014Y-91668043D01*
X144258274Y-91651047D01*
X144229666Y-91649972D01*
X144070916Y-91648277D01*
X144197916Y-91580886D01*
X144289039Y-91530811D01*
X144341163Y-91498956D01*
X144342997Y-91497473D01*
X144328198Y-91460207D01*
X144269645Y-91385308D01*
X144237163Y-91349405D01*
X144168238Y-91272149D01*
X144157291Y-91245934D01*
X144201412Y-91262969D01*
X144205716Y-91265180D01*
X144292487Y-91304700D01*
X144322097Y-91302530D01*
X144292581Y-91255523D01*
X144201971Y-91160532D01*
X144050138Y-91016114D01*
X143902502Y-90882365D01*
X143803801Y-90802968D01*
X143744107Y-90771417D01*
X143713491Y-90781209D01*
X143708191Y-90792078D01*
X143676739Y-90834167D01*
X143654169Y-90815656D01*
X143612358Y-90789312D01*
X143545418Y-90812294D01*
X143449036Y-90888672D01*
X143318896Y-91022515D01*
X143150683Y-91217895D01*
X142940084Y-91478882D01*
X142907965Y-91519624D01*
X142744059Y-91728644D01*
X142592448Y-91923147D01*
X142463210Y-92090112D01*
X142366427Y-92216518D01*
X142312558Y-92288808D01*
X142220998Y-92417393D01*
X141762448Y-92417393D01*
X141748240Y-92391977D01*
X141747608Y-92347630D01*
X141808215Y-92349269D01*
X141818262Y-92351694D01*
X141874657Y-92359500D01*
X141900820Y-92332669D01*
X141905796Y-92251944D01*
X141902510Y-92172301D01*
X141892167Y-91969167D01*
X141953049Y-92096167D01*
X141995981Y-92199615D01*
X142015756Y-92274439D01*
X142015840Y-92276084D01*
X142041587Y-92324902D01*
X142100045Y-92308432D01*
X142144363Y-92265966D01*
X142201950Y-92222822D01*
X142229582Y-92223269D01*
X142273423Y-92207281D01*
X142327401Y-92144537D01*
X142373646Y-92080630D01*
X142462976Y-91962841D01*
X142585817Y-91803586D01*
X142732594Y-91615279D01*
X142890326Y-91414651D01*
X143092801Y-91156613D01*
X143246755Y-90955527D01*
X143357314Y-90802842D01*
X143429603Y-90690008D01*
X143468747Y-90608475D01*
X143479873Y-90549693D01*
X143468105Y-90505111D01*
X143450714Y-90479826D01*
X143418669Y-90432520D01*
X143450851Y-90430566D01*
X143489165Y-90441913D01*
X143563192Y-90450767D01*
X143584083Y-90405686D01*
X143606082Y-90347543D01*
X143626416Y-90339334D01*
X143663245Y-90373921D01*
X143668750Y-90407363D01*
X143693743Y-90455098D01*
X143736963Y-90449216D01*
X143785505Y-90445939D01*
X143780625Y-90487020D01*
X143787264Y-90541198D01*
X143826711Y-90551000D01*
X143872446Y-90562316D01*
X143845991Y-90602359D01*
X143834695Y-90639360D01*
X143863397Y-90699559D01*
X143939432Y-90793301D01*
X144070131Y-90930933D01*
X144101048Y-90962192D01*
X144231813Y-91090809D01*
X144341581Y-91193148D01*
X144416309Y-91256438D01*
X144440273Y-91270667D01*
X144468747Y-91235577D01*
X144474370Y-91196584D01*
X144480678Y-91150648D01*
X144505548Y-91176991D01*
X144522947Y-91207167D01*
X144573180Y-91289425D01*
X144612768Y-91305078D01*
X144672665Y-91261262D01*
X144690116Y-91245713D01*
X144753387Y-91192092D01*
X144768058Y-91198470D01*
X144751023Y-91260084D01*
X144737137Y-91332883D01*
X144745955Y-91355334D01*
X144795954Y-91335711D01*
X144904397Y-91281508D01*
X145058889Y-91199717D01*
X145247037Y-91097331D01*
X145456446Y-90981346D01*
X145674722Y-90858754D01*
X145889471Y-90736549D01*
X146088299Y-90621726D01*
X146258811Y-90521277D01*
X146388613Y-90442197D01*
X146465311Y-90391480D01*
X146480696Y-90376457D01*
X146491410Y-90329821D01*
X146507278Y-90316810D01*
X146535750Y-90258600D01*
X146530464Y-90229218D01*
X146541620Y-90180123D01*
X146591078Y-90170000D01*
X146659716Y-90147524D01*
X146675763Y-90117084D01*
X146695246Y-90099759D01*
X146732865Y-90137592D01*
X146788116Y-90183838D01*
X146818487Y-90181151D01*
X146861752Y-90184477D01*
X146885480Y-90211359D01*
X146907521Y-90230345D01*
X146952859Y-90242493D01*
X147031764Y-90247654D01*
X147154509Y-90245677D01*
X147331364Y-90236415D01*
X147572600Y-90219718D01*
X147867429Y-90197095D01*
X148202896Y-90170288D01*
X148462825Y-90148153D01*
X148656125Y-90129312D01*
X148791709Y-90112394D01*
X148878487Y-90096022D01*
X148925371Y-90078823D01*
X148941273Y-90059422D01*
X148935103Y-90036444D01*
X148932920Y-90032758D01*
X148934520Y-90004120D01*
X148974638Y-90013311D01*
X149033231Y-90016738D01*
X149045083Y-89997669D01*
X149069354Y-89985644D01*
X149104313Y-90009581D01*
X149145980Y-90062339D01*
X149146916Y-90081536D01*
X149152677Y-90112846D01*
X149222413Y-90156203D01*
X149360496Y-90213372D01*
X149571300Y-90286116D01*
X149859197Y-90376199D01*
X149930790Y-90397763D01*
X150153684Y-90463933D01*
X150348139Y-90520529D01*
X150499696Y-90563432D01*
X150593897Y-90588524D01*
X150617378Y-90593334D01*
X150633634Y-90561680D01*
X150624850Y-90524948D01*
X150620149Y-90477830D01*
X150673286Y-90480517D01*
X150689679Y-90485468D01*
X150740167Y-90494616D01*
X150769821Y-90474754D01*
X150779928Y-90413320D01*
X150771775Y-90297753D01*
X150746649Y-90115492D01*
X150735225Y-90040976D01*
X150708005Y-89840732D01*
X150700483Y-89722424D01*
X150711575Y-89685911D01*
X150740195Y-89731056D01*
G37*
D13*
%TO.C,R5*%
X150558750Y-72448750D02*
X157098750Y-72448750D01*
X150558750Y-72778750D02*
X150558750Y-72448750D01*
X150558750Y-74858750D02*
X150558750Y-75188750D01*
X150558750Y-75188750D02*
X157098750Y-75188750D01*
X157098750Y-72448750D02*
X157098750Y-72778750D01*
X157098750Y-75188750D02*
X157098750Y-74858750D01*
%TO.C,R3*%
X145320000Y-96261250D02*
X151860000Y-96261250D01*
X145320000Y-96591250D02*
X145320000Y-96261250D01*
X145320000Y-98671250D02*
X145320000Y-99001250D01*
X145320000Y-99001250D02*
X151860000Y-99001250D01*
X151860000Y-96261250D02*
X151860000Y-96591250D01*
X151860000Y-99001250D02*
X151860000Y-98671250D01*
%TO.C,Q2*%
X118532500Y-99481250D02*
X122132500Y-99481250D01*
X118521047Y-99473406D02*
G75*
G02*
X119512500Y-95181250I1811453J1842156D01*
G01*
X121112500Y-95181250D02*
G75*
G02*
X122140945Y-99458934I-780000J-2450000D01*
G01*
%TO.C,Q3*%
X138693750Y-67413750D02*
X142293750Y-67413750D01*
X138682297Y-67405906D02*
G75*
G02*
X139673750Y-63113750I1811453J1842156D01*
G01*
X141273750Y-63113750D02*
G75*
G02*
X142302195Y-67391434I-780000J-2450000D01*
G01*
%TO.C,D2*%
X150951250Y-103230000D02*
X150951250Y-106320000D01*
X150951250Y-103230170D02*
G75*
G02*
X156501250Y-104774952I2560000J-1544830D01*
G01*
X156501250Y-104775048D02*
G75*
G02*
X150951250Y-106319830I-2990000J48D01*
G01*
X156011250Y-104775000D02*
G75*
G02*
X151011250Y-104775000I-2500000J0D01*
G01*
X151011250Y-104775000D02*
G75*
G02*
X156011250Y-104775000I2500000J0D01*
G01*
%TO.C,R1*%
X132461250Y-53398750D02*
X139001250Y-53398750D01*
X132461250Y-53728750D02*
X132461250Y-53398750D01*
X132461250Y-55808750D02*
X132461250Y-56138750D01*
X132461250Y-56138750D02*
X139001250Y-56138750D01*
X139001250Y-53398750D02*
X139001250Y-53728750D01*
X139001250Y-56138750D02*
X139001250Y-55808750D01*
%TO.C,SW2*%
X160806250Y-73068750D02*
X160806250Y-74568750D01*
X162056250Y-77068750D02*
X166556250Y-77068750D01*
X166556250Y-70568750D02*
X162056250Y-70568750D01*
X167806250Y-74568750D02*
X167806250Y-73068750D01*
%TO.C,R6*%
X126746250Y-98642500D02*
X133286250Y-98642500D01*
X126746250Y-98972500D02*
X126746250Y-98642500D01*
X126746250Y-101052500D02*
X126746250Y-101382500D01*
X126746250Y-101382500D02*
X133286250Y-101382500D01*
X133286250Y-98642500D02*
X133286250Y-98972500D01*
X133286250Y-101382500D02*
X133286250Y-101052500D01*
%TO.C,R4*%
X131118750Y-59762500D02*
X134168750Y-59762500D01*
X131118750Y-64062500D02*
X134168750Y-64062500D01*
X131118750Y-64062500D02*
G75*
G02*
X131140516Y-59746975I1550000J2150000D01*
G01*
X134168750Y-59762500D02*
G75*
G02*
X134213263Y-64030749I-1500000J-2150000D01*
G01*
%TO.C,R2*%
X111030000Y-79592500D02*
X117570000Y-79592500D01*
X111030000Y-79922500D02*
X111030000Y-79592500D01*
X111030000Y-82002500D02*
X111030000Y-82332500D01*
X111030000Y-82332500D02*
X117570000Y-82332500D01*
X117570000Y-79592500D02*
X117570000Y-79922500D01*
X117570000Y-82332500D02*
X117570000Y-82002500D01*
%TO.C,SW1*%
X115562500Y-106406250D02*
X115562500Y-107906250D01*
X116812500Y-110406250D02*
X121312500Y-110406250D01*
X121312500Y-103906250D02*
X116812500Y-103906250D01*
X122562500Y-107906250D02*
X122562500Y-106406250D01*
%TO.C,Q1*%
X154092500Y-82812500D02*
X157692500Y-82812500D01*
X154081047Y-82804656D02*
G75*
G02*
X155072500Y-78512500I1811453J1842156D01*
G01*
X156672500Y-78512500D02*
G75*
G02*
X157700945Y-82790184I-780000J-2450000D01*
G01*
%TO.C,D1*%
X108247500Y-72273750D02*
X108247500Y-75363750D01*
X108247500Y-72273920D02*
G75*
G02*
X113797500Y-73818702I2560000J-1544830D01*
G01*
X113797500Y-73818798D02*
G75*
G02*
X108247500Y-75363580I-2990000J48D01*
G01*
X113307500Y-73818750D02*
G75*
G02*
X108307500Y-73818750I-2500000J0D01*
G01*
X108307500Y-73818750D02*
G75*
G02*
X113307500Y-73818750I2500000J0D01*
G01*
%TD*%
M02*
